<?xml version="1.0" encoding="utf-8" ?>
<svg xmlns="http://www.w3.org/2000/svg" xmlns:cc="http://creativecommons.org/ns#" xmlns:dc="http://purl.org/dc/elements/1.1/" xmlns:ev="http://www.w3.org/2001/xml-events" xmlns:inkscape="http://www.inkscape.org/namespaces/inkscape" xmlns:rdf="http://www.w3.org/1999/02/22-rdf-syntax-ns#" xmlns:sodipodi="http://sodipodi.sourceforge.net/DTD/sodipodi-0.dtd" xmlns:xlink="http://www.w3.org/1999/xlink" baseProfile="tiny" height="22.86cm" version="1.2" viewBox="0 0 1152.0 864.0" width="30.48cm">
  <metadata>
    <rdf:RDF>
      <cc:Work>
        <dc:format>image/svg+xml</dc:format>
        <dc:source/>
        <dc:date>2021-09-29T01:54:06.659657</dc:date>
      </cc:Work>
    </rdf:RDF>
  </metadata>
  <defs/>
  <g fill="none" id="layer1" inkscape:groupmode="layer" inkscape:label="1" stroke="#00f" style="display:inline">
    <polygon points="866.1993,410.9629 875.3244,405.4522 878.951,402.7329 882.3123,399.7264 887.2106,393.8824 890.4505,388.25 893.6975,379.7513 896.218,369.4875 899.3473,349.7265 905.7542,297.9974 907.6239,281.2609 908.7797,266.4364 909.0565,257.5325 908.8202,250.1559 908.0377,243.8078 906.5768,237.4611 903.9309,230.0193 899.7327,221.0675 896.541,215.6979 893.0842,211.5427 889.4841,208.3667 884.9352,205.178 863.7302,193.0571 850.6844,184.248 837.1781,173.3651 815.643,154.0329 807.38,147.7216 801.5737,144.3305 796.756,142.4044 792.2493,141.6006 788.4365,141.965 784.5565,143.7006 780.9569,146.7713 777.6641,151.0307 774.1189,157.4517 769.5318,168.9202 761.791,193.0855 757.4429,204.9879 753.6362,213.7649 742.9624,236.1221 736.6676,250.2731 732.7078,260.085 728.9479,270.6135 725.5086,281.5589 722.2459,293.5178 719.9951,303.4877 718.3778,312.5116 717.0708,322.5124 716.3608,331.3619 716.1159,340.8593 716.5018,350.7218 717.4487,360.7514 718.8629,369.3845 720.693,376.489 722.8574,382.1505 725.5135,386.9674 728.9773,391.2874 731.6006,393.656 734.4508,395.6389 737.0409,397.0111 739.8696,397.9917 747.4772,399.3416 762.6503,400.3486 765.6082,401.1091 767.5402,402.2665 768.8161,404.1967 769.1204,407.277 768.5982,410.6811 766.3223,420.3558 766.0273,425.2916 766.5254,426.9946 767.4766,428.0572 768.9318,428.7368 771.1334,429.0678 777.5886,428.6375 813.7235,423.7688 834.4764,422.4462 842.4567,420.9666 847.5264,419.3883 853.2174,417.1576"/>
    <polygon points="900.5677,457.2778 908.6156,459.1071 922.9383,463.1275 924.5548,463.3029 924.7632,463.0841 924.5679,462.714 920.6104,459.8791 912.0821,455.2575 902.3826,450.6813 892.7893,446.7473 886.1875,444.5319 880.1055,443.0981 875.754,442.6807 871.5568,443.0977 865.337,445.2314 858.334,449.2042 852.2694,453.4563 828.9401,470.9847 821.2923,476.111 815.217,479.6063 810.6487,481.7043 805.3498,483.5074 789.3502,487.0916 784.2502,488.5447 779.0295,490.8152 774.8148,493.6392 770.3235,498.1142 766.0068,503.7412 761.6655,510.5763 756.9423,519.3131 751.2122,531.5554 745.6221,544.9106 742.5334,553.8179 740.5444,562.0868 739.8811,568.2554 740.1418,573.3069 741.5576,579.8823 743.8342,586.171 746.6915,591.6036 750.126,596.0203 753.5128,598.6516 755.3136,599.4304 757.1731,599.8003 760.0916,599.2927 764.3236,596.7377 768.1233,593.3069 773.3245,587.5276 810.9668,539.1229 830.8872,511.7218 843.1103,495.8436 852.9826,483.7192 861.9365,473.3371 867.8326,467.1329 873.3607,462.1603 877.524,459.2365 881.4098,457.3995 885.3488,456.4595 890.1753,456.1465 895.299,456.4723"/>
    <polygon points="912.9939,452.7505 903.6625,450.1528 892.6625,447.74 878.1241,445.2044 863.365,443.1866 855.8289,442.681 851.158,443.2548 847.5301,444.8364 844.6611,447.3537 826.2558,472.1791 822.0122,476.8383 817.4869,480.5388 813.1155,482.9768 807.8593,484.9671 788.8634,489.5362 782.0846,491.6695 776.2134,494.4031 770.8615,498.1034 767.5167,501.2511 763.1025,506.2261 752.9826,519.0603 747.5371,526.5276 743.5872,530.9047 742.0451,533.7337 740.892,538.2177 740.036,546.1559 739.9382,556.0742 740.8733,568.1357 742.6179,580.0758 744.5824,588.4323 746.9013,594.5302 748.1524,596.6691 749.5173,598.2974 751.0,599.366 752.367,599.7963 754.2957,599.4309 756.5666,597.8967 759.2023,595.2566 762.221,591.5558 769.4383,581.0951 786.2967,554.4258 791.4313,547.296 796.6343,541.1763 800.0899,537.8425 805.1759,534.0491 810.0561,531.5168 817.5088,528.5479 821.4886,526.3134 825.0906,523.1641 830.4087,516.7817 835.2943,508.6346 838.7071,500.435 841.4719,491.3326 845.8885,473.8118 848.1959,466.7162 850.9261,461.1229 852.4916,458.8878 855.0981,456.191 859.0055,453.7072 862.6858,452.4721 868.2548,451.71 874.9754,451.5817 883.4597,452.0132 893.3236,453.01 906.0547,454.8992 922.5044,458.0402 924.3386,458.1883 924.7183,458.0672 924.6871,457.7746 920.8947,455.6384"/>
    <polygon points="922.3198,519.0597 912.2282,522.1577 876.7925,535.4661 865.5701,540.0469 855.2497,544.8858 845.4391,550.2808 837.0239,555.733 829.323,561.6005 824.6386,565.7158 820.3699,569.9695 816.6639,574.2146 813.4149,578.6717 808.2254,587.7483 797.6499,609.8893 793.868,615.8397 789.9785,620.4571 785.9722,624.2811 780.885,628.3712 753.8494,646.2763 729.0366,665.7722 721.9007,672.1108 715.251,678.8675 709.8997,685.2466 705.291,691.8244 701.1833,699.2319 698.3178,706.5663 696.9903,712.9389 696.9466,719.3606 698.1877,727.3651 700.8581,735.9628 704.7437,744.0327 709.3535,750.6791 714.0,755.4678 718.7778,758.9773 723.5055,761.3278 729.3517,762.9812 736.4822,763.9172 746.07,764.1686 755.5002,763.7232 767.067,762.5136 778.9329,760.6182 789.0971,758.4431 800.027,755.4122 808.7854,752.3163 817.8726,748.3077 826.1917,743.839 833.8432,738.9624 840.7163,733.744 845.1792,729.7136 850.2094,724.4315 855.0735,718.5977 860.4519,711.3791 868.8289,698.8311 892.6398,660.9278 900.1367,650.1222 914.8439,630.2332 923.6653,616.5421 928.0881,608.5504 932.2018,600.2018 935.9333,591.6701 939.2174,583.1636 941.9911,574.8976 944.1884,567.0689 945.7366,559.8382 946.5567,553.3212 946.7341,545.2568 946.1844,538.0268 944.9241,531.5359 942.9351,526.0468 940.3859,521.9955 937.3809,519.34 933.9884,518.0245 929.5387,517.8175"/>
    <polygon points="932.4123,592.8638 939.4288,577.9423 942.1718,570.8367 944.3197,564.1418 945.8057,557.9561 946.4997,553.1129 946.7262,545.0284 946.0243,537.8115 944.4153,531.3622 941.877,525.9309 938.6277,521.9333 934.8076,519.3165 930.5161,518.0207 924.9374,517.8167 920.1167,518.3213 914.8558,519.2918 902.1761,522.6863 886.8571,527.9664 867.5981,535.5675 858.9432,539.8245 850.2589,545.0528 841.4071,551.3874 831.4361,559.4287 821.4009,568.7952 817.0821,573.7315 814.1392,577.7424 808.8895,586.8391 800.9315,604.11 797.6262,610.5573 793.7985,616.4692 789.4928,621.3961 784.6481,625.7684 778.5885,630.2938 756.5707,644.2746 743.7757,653.3293 726.6379,664.6457 719.6177,669.6608 714.4223,673.8926 709.7342,678.3838 705.6408,683.1734 702.6051,687.6138 699.2652,694.3076 697.2818,701.2646 696.8377,707.7166 697.5856,715.6363 699.9743,726.1851 703.5015,736.1128 707.7982,744.7105 710.2865,748.5883 712.9912,752.1074 717.2131,756.4117 721.3472,759.4546 725.6222,761.55 731.0461,763.077 737.417,763.9421 745.9482,764.1642 754.0548,763.7215 764.1699,762.5173 774.6239,760.6257 783.5346,758.4978 793.528,755.4684 801.5413,752.4373 808.9503,749.0367 816.8565,744.6459 824.133,739.8557 830.7424,734.737 834.9111,730.926 838.605,727.0248 844.6962,719.0508 850.1929,710.1697 864.1515,685.5435 873.0831,672.1096 888.3365,652.7663 911.3793,625.1605 917.6935,616.769 923.7954,607.7398"/>
    <polygon points="874.6955,663.8033 880.754,657.3067 904.1713,634.7476 910.0269,628.7096 916.5689,620.9249 922.8467,612.0248 926.7876,605.5487 931.0633,597.5978 934.9325,589.4206 938.3415,581.2483 941.2411,573.3081 943.8655,564.7734 945.6726,557.0331 946.5081,551.0274 946.7515,543.6858 946.2417,536.9109 944.9632,531.0227 943.06,526.45 940.4493,522.7926 937.0986,520.0699 933.2433,518.4371 928.2575,517.7798 923.7727,517.903 918.7227,518.4709 905.2732,521.1215 889.4821,525.3576 870.6385,531.3406 861.1013,535.0108 853.6449,538.6359 846.3477,543.1663 839.7567,548.3144 833.5436,554.072 827.0421,560.9487 821.8983,567.2153 817.7707,573.1911 814.9514,578.0896 811.9359,584.3336 803.7508,604.6119 800.6186,611.4309 796.6785,617.9465 792.4334,622.8398 786.676,627.6393 779.8094,632.0036 753.275,645.371 729.6115,658.4501 722.1985,662.9237 716.7265,666.8056 711.8296,671.039 707.5831,675.6828 704.4186,680.1015 700.4907,687.6693 697.9008,695.8001 696.8685,703.3765 697.2398,713.0163 699.184,724.7739 702.5471,736.428 706.6396,745.6839 709.2657,749.9996 711.8259,753.3513 715.4833,757.0152 719.5473,759.8802 723.3422,761.6348 728.8938,763.1129 735.5776,763.9499 743.3394,764.1824 752.033,763.8456 763.0164,762.7797 772.7585,761.3279 782.3884,759.4121 791.5264,757.0593 799.8729,754.2926 806.1019,751.6855 812.701,748.2125 818.4984,744.3849 824.6287,739.5092 828.6542,735.7871 832.3112,731.8962 835.6014,727.8696 839.022,723.0073 844.288,714.0423 859.416,685.3907 864.3497,677.3567 869.4388,670.1861"/>
    <polygon points="900.4127,711.4561 904.825,701.3004 908.2455,691.0057 911.6579,678.4607 923.7532,625.6641 928.0096,609.5157 930.7587,601.1895 933.9282,593.4339 944.114,573.9043 945.7384,568.982 946.584,563.7492 946.7259,556.2343 946.1035,547.229 944.8008,538.0777 942.9417,529.9092 940.9979,524.335 938.701,520.2671 937.4809,518.9743 936.2895,518.219 935.0168,517.8317 933.4064,517.8151 930.0164,519.0694 926.5301,521.7245 923.3036,525.0503 914.9136,534.7515 909.5647,539.7901 902.8855,544.4228 894.952,548.779 884.1339,553.5718 871.3884,558.2643 857.5403,562.7409 826.7353,572.0543 815.1335,575.9095 807.1515,579.2481 800.44,583.2101 795.1611,587.6587 790.1059,593.4855 776.0811,613.5838 769.8008,623.3312 765.379,631.1265 761.2359,639.4378 751.661,662.0097 748.3168,669.1887 743.7273,677.681 738.201,686.3499 732.5352,693.9552 725.5087,702.1204 717.3755,710.4056 703.1761,723.7404 698.4005,729.2397 697.1105,731.7822 696.8301,733.8465 697.3048,736.2239 698.7455,738.8876 702.6934,743.0825 709.7637,748.4073 719.5326,754.4773 728.7454,759.255 734.9463,761.7209 740.4202,763.1436 746.7981,764.0206 753.6539,764.1135 758.0647,763.6886 763.3872,762.74 787.5208,757.1463 831.1686,748.2389 853.1198,743.1597 862.9623,740.3186 871.7039,737.1437 878.512,733.978 884.5643,730.3019 890.6247,725.2454 895.8699,719.0245"/>
    <polygon points="822.1689,746.23 832.702,741.2083 842.0062,735.86 849.714,730.3136 854.4361,726.1963 858.9175,721.737 863.1777,716.9716 867.8941,711.0729 876.6259,698.4001 886.2725,681.9967 902.5455,651.7729 923.4674,614.7516 933.5999,595.0789 938.7419,583.6432 942.8258,572.7793 945.3919,563.5299 946.5532,555.8717 946.7196,547.589 946.0541,539.7585 944.5715,532.4271 942.4135,526.4277 939.7053,521.9729 936.5685,519.1441 933.2664,517.9384 928.8043,517.9081 922.7404,519.2964 914.9705,522.2702 892.849,532.848 871.1902,542.4083 856.5453,549.2738 845.1632,555.0925 835.816,560.3647 827.1676,565.8612 820.1138,571.0654 813.8128,576.7602 808.4379,583.3225 804.0386,590.2838 793.8497,608.8698 790.4745,613.8641 786.9075,618.1907 778.2707,626.7099 756.1063,645.7034 743.8035,658.0948 723.9791,677.281 711.312,690.77 706.717,696.4448 702.805,702.0345 699.7443,707.4826 697.703,712.7325 696.8855,717.1194 697.0211,722.1487 698.2782,728.317 700.5902,734.5966 704.1333,741.2695 708.2219,747.0735 712.9612,752.3096 718.22,756.7577 723.385,759.9546 728.6383,762.0926 734.8399,763.455 743.0624,764.1475 751.0812,764.0485 760.9855,763.1912 772.8028,761.3596 785.0265,758.7036 798.6959,754.9041 810.7269,750.8277"/>
    <polygon points="822.0722,746.8394 829.1003,742.1703 835.6454,737.0396 843.5975,729.395 851.8586,719.3477 860.6494,706.6767 879.4963,676.693 888.2389,663.8189 898.0954,651.1662 915.3872,631.4597 920.2779,624.8791 924.3873,618.4717 928.2702,611.466 931.8753,603.9518 935.6051,594.9408 938.8752,585.7609 941.6447,576.7285 944.1055,567.1085 945.7947,558.3812 946.5684,551.55 946.7462,543.7845 946.269,536.6144 945.2137,530.7655 943.5543,525.9083 941.2658,522.0983 938.5266,519.5493 935.2193,518.1195 931.0266,517.7753 923.5251,518.7903 912.6748,521.6099 879.1712,532.3477 866.5791,536.8187 856.6673,541.0207 848.1664,545.3817 840.4312,550.2334 833.5036,555.561 828.9484,559.7148 824.2843,564.6392 820.1083,569.7905 816.3857,575.2037 811.0745,585.2688 803.2124,604.1262 800.2927,610.4137 796.6803,616.5574 792.5843,621.5797 787.7536,625.9485 781.5831,630.3072 774.8626,634.2197 752.4203,646.1975 738.4066,655.323 730.1442,661.1197 722.7717,667.0432 716.631,672.9096 711.7476,678.523 707.002,685.2176 702.7103,692.9836 699.2401,701.6649 697.2309,710.1565 696.8509,717.4704 697.9034,727.0834 699.1251,732.502 700.5583,737.1744 702.3026,741.6188 704.3503,745.7636 706.7004,749.5543 709.0072,752.5491 713.1111,756.5972 717.7997,759.7758 722.3159,761.7564 728.4372,763.2166 736.0385,764.006 746.4219,764.1442 756.7133,763.6445 769.2857,762.42 780.3808,760.8198 790.973,758.7594 800.6125,756.2619 807.9389,753.7851 815.4302,750.5131"/>
    <polygon points="776.6301,755.3654 787.6105,750.8853 835.0411,733.7265 848.5197,727.8731 859.1461,721.9832 866.254,716.8888 873.3673,710.584 879.0021,704.3323 883.0847,698.2062 886.0797,691.8343 888.9651,683.5108 898.4648,647.7489 903.1521,631.9839 907.1626,620.7172 911.0633,611.6719 916.5204,601.6683 922.2868,593.6731 927.4503,588.0859 938.967,577.8095 942.7947,573.577 945.1782,569.5211 946.4445,565.0926 946.751,561.2286 946.6716,557.243 945.3804,547.4873 942.7279,537.4435 939.201,529.0943 935.5522,523.5465 933.3146,521.2297 931.2564,519.6886 929.2336,518.6738 926.9935,518.0356 924.6116,517.7744 921.6142,517.9188 917.4794,518.8072 913.3121,520.3828 908.7385,522.8246 904.4214,525.799 897.6396,531.8072 886.0173,544.4888 880.2791,550.1672 874.0954,555.0355 867.5323,558.9649 859.4619,562.6949 848.9887,566.5054 810.1367,577.8333 803.98,580.3143 798.6204,583.2183 792.9869,587.5866 787.8886,593.226 777.3802,608.2292 771.3506,617.7715 767.0227,625.7296 763.1459,634.115 751.4148,664.6496 747.5975,671.8492 743.3775,677.9217 737.6276,684.1557 730.0962,690.1817 721.7888,695.2561 704.1188,704.4072 700.3995,706.9081 697.9145,709.4407 696.9177,711.6798 697.0458,714.6496 698.4294,718.4429 700.9794,722.9001 706.6748,730.7575 714.5898,740.1374 722.9054,748.8257 730.1459,755.3121 735.9198,759.4598 741.0625,762.021 746.4852,763.6275 752.2677,764.182 756.2667,763.76 760.845,762.4253"/>
    <polygon points="752.1273,763.7772 761.3825,762.7302 770.9812,761.0822 778.9749,759.278 788.2394,756.627 795.4695,754.0357 802.1161,751.1166 809.2514,747.2074 814.5372,743.6355 820.2618,739.0087 825.5392,734.0594 829.4583,729.734 832.8247,725.2716 835.667,720.7207 840.1176,711.507 847.9403,691.3509 851.1923,683.7518 855.1047,676.1735 859.3365,669.8174 862.3488,666.2068 866.0641,662.4488 896.516,635.3124 905.4332,626.7887 914.4294,616.7584 923.0008,605.2505 931.3554,591.6076 935.0051,584.6646 938.7353,576.7046 941.8311,569.0889 943.9259,562.9647 945.6515,556.4038 946.4574,551.3406 946.7578,544.5041 946.2721,538.103 944.9856,532.4134 942.8816,527.5777 939.9386,523.6451 936.4291,520.8283 932.141,518.8766 927.3408,517.9356 918.861,517.9503 908.0678,519.3306 894.7848,522.0665 881.0143,525.7485 866.1755,530.6086 858.1924,533.8299 851.2444,537.5933 844.9802,542.3198 839.4396,547.7456 827.1264,561.1762 821.901,567.3715 818.064,572.6729 815.0573,577.6089 811.9524,583.7437 803.2133,604.8237 800.0402,611.5583 796.0405,618.0056 791.3741,623.211 784.7333,628.5235 776.3874,633.5794 757.8508,643.0446 742.5909,651.3568 723.2592,660.4185 715.7704,664.435 711.5531,667.2789 708.3261,669.9824 705.0311,673.5112 702.6155,676.8861 700.5853,680.5853 699.1996,683.8988 697.9291,688.1125 697.2241,691.7784 696.8696,695.5366 696.8708,700.0364 697.9977,711.3027 700.6946,724.4216 704.5061,736.5341 706.8649,742.1152 709.1813,746.6058 711.7378,750.6594 714.5364,754.2179 718.0289,757.6104 722.0861,760.3495 726.3119,762.1077 731.3078,763.3153 737.0645,763.9985 744.9121,764.161"/>
    <polygon points="706.6296,746.4451 709.2163,750.8913 711.7767,754.2817 715.0562,757.5367 718.7147,760.0764 722.4121,761.7349 727.2093,763.0217 732.8948,763.8252 740.8618,764.1842 748.3588,764.0049 758.1539,763.2486 768.4524,761.9372 777.0781,760.4452 787.0493,758.2023 794.7353,755.9735 801.6463,753.4307 807.6848,750.5846 812.8659,747.446 818.1401,743.3111 822.7709,738.8013 826.3299,734.7852 829.5153,730.5666 832.8358,725.2903 837.345,716.2286 846.3045,694.3197 850.9739,683.955 856.0297,674.7038 860.9188,667.6901 865.5298,662.4905 871.0124,657.5102 899.3179,636.1901 906.5487,630.1007 914.5391,621.755 922.1344,611.6061 926.3741,604.7743 930.3116,597.5483 934.4692,588.8503 938.1064,580.1447 941.1742,571.7157 943.9167,562.7331 945.5809,555.6457 946.4867,549.3952 946.7582,542.3806 946.3193,536.0216 945.1564,530.5941 943.4143,526.4641 940.803,522.9528 937.3945,520.3369 933.1368,518.6025 928.5701,517.8702 919.2839,518.0572 906.4704,519.7468 890.7963,522.8229 875.0756,526.7485 862.8971,530.3523 854.3724,533.6446 847.6229,537.2213 841.4887,541.7853 836.6508,546.6038 831.2702,553.0802 825.0584,561.5289 820.4004,568.9155 817.2883,574.8173 814.4392,581.296 806.0436,604.5267 803.0706,611.7243 799.0452,618.9218 794.5454,624.1937 788.2631,629.1036 779.6609,633.801 753.4046,644.5067 727.1666,655.7093 719.6959,659.3053 714.3616,662.532 710.2823,665.721 706.7805,669.3271 703.8387,673.3931 701.7356,677.2487 699.9979,681.4236 698.6195,685.8728 697.6124,690.5311 696.8313,699.1743 697.3836,710.3229 699.4427,724.0658 702.6743,736.6851 704.6456,742.1003"/>
    <polygon points="698.1132,714.0919 697.0587,717.3251 696.8295,720.1341 697.2175,723.572 698.2276,727.181 700.0475,731.4064 702.5209,735.754 705.5671,740.1522 710.7949,746.4004 716.2572,751.7773 722.0809,756.4455 728.0371,760.0771 733.1455,762.1549 739.1655,763.5337 745.6699,764.144 753.504,763.9642 763.8872,762.5337 776.4959,759.5842 796.6568,753.6508 817.7652,746.6863 830.8093,741.7733 841.0909,737.264 849.6673,732.7586 857.6334,727.4765 866.0943,720.3187 873.3933,712.4871 880.3314,703.1094 886.4949,692.6715 893.5122,677.9529 908.7546,640.7367 917.6651,620.6033 924.4452,607.084 937.6184,583.6509 942.1407,574.6714 945.0645,566.8143 946.5333,559.2566 946.697,550.8382 945.8428,542.2283 944.1145,534.1653 941.6598,527.3407 938.8557,522.5304 935.7169,519.4271 933.938,518.4674 932.2395,517.9741 930.0271,517.7649 927.6527,517.9375 922.5343,519.2755 917.1004,521.6803 910.1281,525.7026 894.1227,536.102 882.307,542.6708 864.8384,551.3994 827.4325,568.5248 818.3647,573.3199 811.8155,577.5521 806.6942,581.9195 801.882,587.2935 798.0598,592.6074 789.8853,605.6006 785.5501,611.8304 761.3362,640.556 755.6701,648.0493 747.8827,659.2308 741.1464,667.7435 729.0944,680.8338 706.7814,702.419 702.9755,706.6647 699.955,710.7363"/>
    <polygon points="753.5729,645.9029 748.8116,649.2303 737.4943,658.0514 729.3387,665.239 722.7931,671.9328 716.6835,679.2511 711.2142,687.0202 706.0312,695.9047 701.5253,705.5862 698.4089,714.748 696.9776,722.3265 696.8287,726.0593 697.0808,730.4211 698.6208,738.3566 699.9602,742.2959 701.6308,745.9512 703.3519,748.8879 705.6064,751.929 709.9125,756.1435 715.0031,759.4608 720.8464,761.8555 727.2521,763.25 736.6269,764.0576 749.545,764.0949 764.3679,763.3122 778.3018,761.9749 790.2665,760.3228 799.8965,758.5345 808.5128,756.4278 817.1658,753.6192 825.8749,749.9215 835.2089,745.1078 843.2177,740.1914 850.0172,735.0597 855.9568,729.7147 861.8129,723.5696 867.5281,716.6666 873.0617,709.1023 882.0635,695.0701 903.1376,659.141 909.0118,650.4141 921.0397,634.1499 927.5593,623.3349 930.7543,616.7759 934.0866,608.6714 937.0596,600.0581 939.6651,591.1621 942.3961,580.0583 944.5158,569.4666 945.9655,559.8286 946.6237,552.2171 946.7434,544.0457 946.3725,536.8854 945.5218,530.6153 944.2752,525.7221 942.5713,521.8821 940.5333,519.3533 938.2208,518.0675 935.0641,517.7913 931.4894,518.3658 926.3953,519.8552 902.1553,528.6568 875.5427,537.1878 860.7513,542.5086 851.3303,546.5258 843.5671,550.4617 836.6687,554.6917 830.6702,559.1987 826.5727,562.8793 822.3978,567.2512 818.2313,572.3462 815.1935,576.7253 810.0841,586.1201 802.3064,603.9981 799.3343,610.1673 795.9481,615.8254 792.2136,620.5083 787.4669,625.0001 781.8544,629.2356 775.3425,633.3443"/>
    <polyline points="748.357,599.8023 750.1027,599.6148 752.2745,598.8263 758.1156,595.4796 764.6893,590.5641 771.083,584.7557 776.4776,579.1046 782.2916,572.3532 804.8968,543.3266 812.4317,534.5375 815.8369,531.0564 820.3777,527.0545 829.5069,521.0369 831.3091,519.2385 832.3566,517.3071 833.9098,512.895 840.2282,487.8528 842.8106,479.5266 844.76,474.3324 848.0288,467.3676 850.4265,463.3737 852.9812,459.9296 857.0594,455.7693 861.3509,452.7055 867.2243,450.0284 873.7009,448.4905 882.1452,447.7949 893.6692,447.9552 904.4294,448.9519 914.1188,450.788 923.8273,453.8384 924.5984,453.8895 924.7507,453.5747 923.7013,452.265 921.4421,450.5735 915.5256,447.739 908.5847,445.8498 899.5777,444.4729 883.1649,443.2288 863.9632,442.6808 852.1132,443.1925 844.3875,444.5097 841.7702,445.5177 839.8824,446.6656 838.2294,448.1518 836.7735,450.0145 834.2793,454.8969 829.9505,467.185 827.5455,472.5286 823.9829,477.8507 820.0769,481.5106 815.4489,484.2091 810.0999,486.2488 788.8105,491.5019 780.6198,494.1704 773.6072,497.5511 767.3583,502.0065 762.7242,506.5006 752.6963,517.3806 744.9385,523.2512 743.2587,525.9798 742.1539,529.7692 740.8419,539.972 740.0497,554.4824 739.8866,568.1271 740.5025,581.3593 741.457,589.3555 742.8481,594.7571 743.7835,596.7046 744.9227,598.1921 746.3009,599.2201 747.7531,599.7219 752.9774,599.4853 760.4387,598.154 766.1009,596.3256 771.0088,593.9547 776.4288,590.3674 780.2843,587.1665 786.3425,581.0479 790.5008,576.1069 794.6968,570.5563 800.9409,561.3825 815.9601,536.9871 820.5028,530.1187 825.3652,524.2229 830.2062,520.5662 831.3355,519.3103 833.3773,514.696 837.4215,501.8222 840.3523,493.5871 845.34,482.2505 849.8251,474.2894 853.109,469.4969 856.5777,465.2133 862.0219,459.8185 867.6063,455.6468 873.1684,452.5798 878.5624,450.443 885.2863,448.7374 890.7042,448.0178 897.7782,447.6439 904.473,447.7293 910.9082,448.248 915.4924,449.0293 919.1916,450.1615 921.6418,451.4345 924.6771,453.7819 924.1498,451.6123 922.5001,449.0168 920.9966,447.6272 919.192,446.5474 914.2266,444.9547 905.9939,443.8025 894.3467,443.0716 877.2754,442.6807 863.526,443.014 852.2959,443.9594 844.4978,445.6318 841.6096,446.829 839.6093,448.0372 837.8783,449.4895 836.0662,451.6609 833.8316,455.9223 830.0069,467.1047 827.6369,472.4758 824.0994,477.8274 820.2023,481.508 815.5715,484.2219 810.2094,486.2731 788.8245,491.5552 780.5918,494.2378 773.5447,497.6353 767.2681,502.1102 763.2507,505.9551 752.5706,517.4819 750.3561,519.3499 745.6049,522.5907 743.9515,525.5249 742.8436,529.857 741.4877,540.8695 740.3869,558.979 739.8647,578.2675 740.2486,589.5323 741.0216,595.0185 742.2626,597.9447 743.2695,598.8212 744.5585,599.3551 748.6258,599.8087 750.4965,599.0666 752.819,597.2068 755.6505,594.2706 760.2951,588.6648 769.2098,576.3976 788.4287,547.9389 794.7516,539.5868 801.033,532.5813 807.0778,527.467 812.6942,524.4125 817.7127,523.1104 826.4936,522.4654 829.6525,521.0592 831.3686,519.4008 833.3015,514.8475 834.9158,506.9469 837.8131,476.8174 839.328,467.1882 840.9665,461.3455 842.3398,458.15 843.9458,455.4925 846.776,452.4214 848.9179,450.9062 851.233,449.7517 855.5711,448.4582 861.9229,447.6908 871.4969,447.5011 883.3729,447.9678 895.3493,448.9808 907.6494,450.6351 922.855,453.517 924.349,453.6243 924.7414,453.2913 923.5012,452.304 920.5236,450.8879 913.1508,448.4621 904.5331,446.5869 893.9824,445.0987 877.5232,443.7409 855.2209,442.7817 844.6733,442.786 839.3022,443.6133 837.723,444.6384 836.6771,446.4338 830.5637,465.6179 828.0808,471.7553 825.1118,476.6925 821.1891,480.8572 816.7161,483.7525 811.4761,485.9323 805.6071,487.6404 786.2477,492.3639 780.5565,494.3227 775.173,496.7889 770.202,499.8535 766.1895,503.0943 754.3805,515.6696 751.0517,518.7875 745.477,522.2148 742.0297,523.1428 741.2289,524.6546 740.6317,528.1461 739.925,541.9483 740.038,558.6891 740.9827,576.8443 742.1117,587.1229 743.5998,593.9677 744.5748,596.4811 745.5815,598.1435 746.749,599.2647 748.0921,599.7966"/>
    <polygon points="764.5873,599.7962 766.231,599.6849 768.7843,598.5237 770.5091,597.121 773.0712,594.1527 777.1101,587.3375 784.4097,570.4115 787.3574,565.0383 789.2933,562.6959 796.348,556.0824 800.1138,551.6638 806.3512,542.7516 820.5888,519.6713 827.6645,509.2949 834.943,500.4357 842.0575,493.6071 846.5556,490.1756 850.7817,487.5219 856.5217,484.6575 865.6758,480.8683 870.1667,478.3574 874.3648,474.467 880.6152,465.7346 882.0618,464.4266 883.963,463.5278 886.5879,463.217 890.2692,463.635 916.8877,470.0629 923.3425,471.2019 924.574,471.1962 924.6865,470.8542 922.1393,469.2927 908.2198,462.4471 900.7722,458.2385 892.1352,452.3653 881.8048,443.9247 879.7937,442.8771 878.2308,442.7028 876.5457,443.372 874.5836,444.9609 864.6763,455.7451 857.6704,462.1355 850.0264,467.5245 842.3594,471.6094 834.2121,474.8687 824.0866,477.8319 809.3001,480.8407 787.6288,483.9481 783.7695,485.1392 780.4675,487.122 778.2544,489.2672 775.7755,492.5483 771.0564,501.2242 767.0296,510.8094 757.4563,536.2907 752.3915,547.3679 747.8002,554.7542 741.13,562.2754 739.9329,565.1039 740.2268,568.3318 742.5082,574.0666 746.5285,581.771 750.9626,588.7726 754.3919,593.139 757.9946,596.6534 761.3156,598.8188"/>
    <polygon points="766.4106,598.6804 768.9822,596.6754 771.5849,593.7794 775.8587,587.3882 783.8472,572.7535 786.9797,567.7448 790.3157,563.4274 798.5567,554.2726 803.929,547.4012 810.3376,537.9625 821.8135,519.8588 828.165,510.6605 832.4949,505.1158 836.8083,500.2131 845.0961,492.4419 850.8124,488.1733 866.9934,477.7304 872.0875,473.1956 880.4413,464.0225 882.3507,462.5737 884.665,461.5631 888.4912,461.0914 893.035,461.5636 919.9645,468.1777 923.9115,468.8569 924.6696,468.7838 924.619,468.3736 922.077,466.7103 902.3071,456.113 883.8751,444.3877 880.3664,442.939 877.5919,442.7377 874.9167,443.6721 871.9267,445.6582 859.0055,457.1567 851.5496,462.9647 844.8431,467.2761 837.6752,471.0499 826.7321,475.5579 813.5906,479.6966 804.1998,482.0112 789.7109,484.5696 785.6605,485.541 781.8013,487.0986 778.6231,489.199 776.2959,491.453 773.5625,494.925 768.6672,503.314 764.1856,513.247 752.5892,541.8165 748.262,550.4368 741.6235,561.4976 740.4958,564.1099 739.9798,566.2637 740.0753,569.9819 741.6547,575.0727 744.945,582.1467 748.7356,588.5336 752.0344,592.9496 755.5907,596.5457 758.9679,598.7938 762.3584,599.7977 763.9301,599.7"/>
    <polygon points="745.4013,545.2819 742.4284,555.1818 740.6422,563.453 739.9438,569.3275 740.0096,574.6882 741.0987,580.5962 742.9518,586.1096 745.6871,591.4698 748.8783,595.6331 752.3231,598.4035 755.8599,599.7086 760.4496,599.7069 766.7196,599.1469 771.8939,598.3825 776.3993,597.2793 779.9701,595.8515 782.4347,594.4415 786.2479,591.3681 788.8623,588.5274 792.8832,582.8834 797.0125,575.5161 801.2385,566.626 812.8875,540.2672 818.8614,529.1764 824.8891,520.3298 837.0199,503.9663 843.6326,496.2372 851.0519,488.9325 861.245,480.5202 873.8629,471.6951 889.138,462.6038 895.4904,459.4364 899.5933,457.7509 903.6683,456.5614 907.4584,455.9309 911.3449,455.7609 914.974,456.1419 917.5056,456.8682 919.8677,458.1164 924.6923,462.8795 924.328,460.9148 922.5331,456.6054 920.7329,453.3935 918.8849,451.0008 915.5772,448.1483 911.374,445.8954 905.9599,444.1201 899.6184,442.9954 893.6658,442.6811 887.9841,443.0825 881.4985,444.2087 873.6655,446.2557 860.7619,450.9602 848.8473,456.8388 840.231,462.2791 822.8222,475.0959 813.8834,480.427 809.7585,482.2235 804.892,483.8158 789.0341,487.3661 783.4096,489.044 777.7229,491.7351 773.1395,495.1854 768.0053,500.8937 762.1851,509.3352 756.5328,519.3833 752.1361,528.9402 749.3146,537.3975 746.7638,547.4277 744.2465,559.6951 741.6153,574.9875 740.3032,584.2762 739.8663,589.8087 740.1331,593.0675 741.1094,595.6494 742.8397,597.4233 745.7357,598.6177 750.7493,599.4655 756.7063,599.8045 758.0388,599.7361 760.333,599.0545 762.8704,597.7099 765.6369,595.7443 771.8,590.1185 778.7087,582.5134 786.2491,573.2654 794.3076,562.711 830.9435,512.1149 845.7198,492.6119 854.2736,482.1336 861.1216,474.4023 867.6446,467.7885 872.585,463.4328 877.2415,460.0164 881.5806,457.6392 886.1214,456.224 891.5001,455.6577 897.1125,455.9068 903.2968,456.8697 910.7406,458.7066 922.9203,462.5144 924.3992,462.771 924.7491,462.4484 923.7663,461.3236 921.0595,459.3285 912.8503,454.4862 903.8127,450.0504 895.2148,446.5632 887.9074,444.2723 881.6011,442.9922 876.4601,442.6935 871.759,443.3284 868.0457,444.4054 864.28,445.9275 855.3466,450.8844 846.3112,457.2118 825.347,473.3106 819.8756,477.0417 815.1535,479.8163 810.763,481.8756 805.4448,483.7058 789.0565,487.4134 783.3893,489.1047 777.6621,491.8152 773.0517,495.2853 768.3827,500.3971 763.5175,507.1599 758.7367,515.0997 753.7509,524.7768 749.2406,534.9922"/>
    <polygon points="770.1064,501.5093 766.1606,510.2658 761.3624,522.5692 753.7089,544.5692 739.9284,590.4286 739.912,591.7887 740.4197,592.8285 741.473,593.701 743.3665,594.6054 755.0445,598.5444 759.1475,599.4152 763.2604,599.8054 766.5236,599.6098 770.8102,598.6411 781.2408,594.5687 785.4719,592.3806 788.3534,589.4315 790.7186,585.5808 793.3952,579.8518 802.9617,555.4729 807.7114,544.3917 815.0911,529.9545 821.3179,519.7829 827.9625,510.1078 834.7784,501.712 841.6598,495.0298 848.6961,490.0281 855.8611,486.3776 863.0365,483.617 878.8869,478.2564 886.7921,474.9323 893.5528,471.3442 905.2506,463.8826 908.5824,462.4368 911.6474,461.9516 914.2455,462.5284 915.9825,463.6002 921.8698,468.4072 923.7995,469.582 924.7011,469.7791 924.2406,468.41 919.1469,460.4522 914.1533,450.8717 910.9386,446.7599 907.3287,444.2522 902.8158,442.8632 898.3329,442.8004 893.2603,443.9621 888.2833,445.8207 881.8209,448.8338 850.1973,466.1272 841.9637,470.1978 835.0598,473.1968 825.5304,476.5662 814.3292,479.6297 804.6012,481.751 790.0908,484.0933 785.9235,485.0195 781.3331,486.9827 777.7787,489.8245 774.0543,494.5627"/>
    <polygon points="769.4686,499.7157 764.1114,504.9526 747.5751,523.6296 746.1207,526.0446 744.8518,529.0531 742.9812,536.2815 741.3143,547.8522 740.1417,562.6484 739.8802,574.1222 740.5008,583.4496 741.8581,590.8524 743.848,595.6807 745.1384,597.3586 746.6606,598.6079 748.4439,599.4344 750.5148,599.804 753.7975,599.3225 758.209,597.6237 763.8938,594.5934 769.3933,590.8772 774.0463,587.0864 779.0984,582.2807 788.1826,571.9501 795.7483,562.0124 815.128,535.0768 820.777,528.3289 828.3213,520.8553 830.8246,517.9165 833.9237,512.3623 843.0531,489.7904 849.0396,477.4124 853.0859,470.8236 855.9375,466.9438 858.8847,463.5156 863.4252,459.2309 868.0227,455.9229 874.0731,452.844 880.5002,450.8881 887.4795,449.9767 896.197,449.8526 905.0411,450.5746 914.2774,452.4221 924.6337,456.1934 924.6925,455.6913 924.0673,454.7434 922.1529,452.851 919.7918,451.1134 913.6791,448.134 906.1405,446.0058 895.803,444.2862 881.8198,442.9883 870.1532,442.7125 860.1207,443.5237 851.121,445.3658 847.4739,446.6353 844.1856,448.2473 841.2551,450.2589 838.6573,452.7061 834.9239,457.7295 828.9135,468.6624 825.863,473.4998 822.3176,477.7978 818.195,481.2759 813.6749,483.7623 808.617,485.6386 789.1369,490.3641 781.6909,492.7148 775.2672,495.7086"/>
    <polygon points="766.9124,420.4421 767.138,423.2255 767.6904,425.1765 768.6432,426.6801 770.3364,427.9759 772.5107,428.7535 775.5118,429.0845 778.988,428.9061 783.3719,428.2082 792.0559,426.0525 812.9909,419.9005 817.419,418.96 825.8144,417.8693 828.129,417.1637 830.0579,416.1865 832.3621,414.4197 834.7409,411.8325 839.6387,404.4991 843.7443,397.0179 854.5971,375.3597 860.8948,363.5924 868.9341,350.1733 888.7246,319.6675 894.8509,308.6871 899.3735,299.1704 903.1871,289.5601 906.1473,280.2556 908.1289,271.5946 908.9335,265.2443 908.9841,259.474 908.3046,254.6509 906.6257,249.3998 904.0866,244.4245 901.9654,241.2479 898.8897,237.4215 892.3864,230.893 884.2093,224.0942 862.3054,207.335 856.1751,202.0318 850.1784,196.1771 842.325,186.9683 825.0213,162.9638 819.7534,156.7033 814.8259,151.6219 809.2994,146.9102 804.388,143.7832 799.5782,141.9606 795.4081,141.6239 792.246,142.31 789.3851,143.6885 786.5205,145.7415 783.6619,148.4176 780.817,151.6628 777.2887,156.4315 771.0365,166.6471 762.9235,182.4754 753.1799,203.8142 742.3358,229.3444 731.9226,255.6648 725.9686,272.6217 721.205,289.4863 717.8954,305.2633 716.8169,312.7646 716.2581,319.123 716.1213,325.0914 716.4356,331.2146 717.1604,337.7987 718.2326,343.9126 719.6168,349.4914 721.2577,354.4805 723.2879,359.26 725.4949,363.3266 728.0639,367.0212 730.6958,369.9331 732.8936,371.7155 735.8403,373.2001 739.1979,374.2291 743.2992,374.9581 758.2746,375.9624 763.1982,376.6335 767.5868,378.1736 769.172,379.2966 770.2365,380.4816 771.1384,382.2121 771.6546,384.3114 771.707,389.9553 770.8342,396.1731 767.5796,413.0866"/>
    <polygon points="765.8648,419.5259 765.6607,425.144 766.0221,426.7811 766.7647,427.9517 767.9231,428.7008 769.7401,429.0658 774.3277,428.7619 793.7059,425.7706 809.0532,423.7666 818.7952,422.8019 835.1305,421.9272 844.091,420.366 853.3748,417.1372 865.9808,411.1183 876.0385,405.1547 882.5926,399.9834 887.0705,394.8849 890.5915,388.6535 892.7909,382.5777 894.9617,373.3682 897.0982,359.8686 906.1616,291.0379 907.8412,276.1267 908.8386,263.05 909.0508,254.019 908.7745,248.055 908.0114,242.4916 906.5943,236.841 904.472,231.3202 901.2359,224.9953 895.8856,215.8286 892.3905,211.3868 889.2833,208.5992 885.2425,205.7639 865.4187,194.5516 852.3539,185.7958 839.2392,175.3692 815.9574,154.9712 806.847,148.1948 800.4785,144.5434 795.2458,142.468 790.4163,141.6017 786.3993,141.9945 783.169,143.3712 779.4798,146.403 776.2102,150.7434 773.3634,156.1915 771.3725,161.1774 769.1974,167.9427 762.3794,195.0348 758.8553,206.0045 755.509,213.7264 745.0944,234.0786 738.5142,248.1749 734.2779,258.3567 730.5661,268.4708 726.7772,280.1877 723.4254,292.007 720.8493,302.6737 718.9688,312.2263 717.5403,321.6565 716.5917,330.8439 716.1292,340.6059 716.269,348.8571 717.0642,358.8687 718.3499,367.521 720.0814,374.6551 722.1801,380.345 724.802,385.1916 727.9589,389.2268 730.5811,391.6882 733.4554,393.7811 736.9459,395.7233 740.147,396.983 748.3032,398.542 762.6479,399.5358 764.9985,400.1573 766.6968,401.2465 767.8299,403.1611 768.0863,405.8528"/>
    <polygon points="728.212,375.0799 730.5099,377.5287 732.7392,379.0922 735.3675,380.2527 738.7643,381.172 742.9542,381.8077 757.7497,382.6801 763.0958,383.3342 767.8725,384.8252 769.5933,385.9036 770.7461,387.0338 771.7207,388.6702 772.2776,390.6341 772.3341,395.8069 771.2853,401.8299 767.8647,415.818 767.1394,421.5798 767.3213,423.9431 767.9851,425.8585 769.0197,427.1002 770.5591,428.0446 773.1993,428.812 776.411,429.0851 780.5707,428.8936 785.6884,428.1848 794.4435,426.3149 814.4794,421.1548 826.2371,419.5775 828.817,418.7427 831.3014,417.454 833.9523,415.5096 836.8489,412.7877 844.9688,403.2663 854.5838,389.9214 863.9775,375.3695 873.5802,359.0756 882.917,341.6815 890.6097,325.8154 897.3839,310.0379 902.2958,296.6598 905.574,285.7504 907.8432,275.5567 908.963,266.2686 908.9165,259.3576 907.7098,252.4369 905.2732,245.715 901.7892,239.3411 895.586,231.0778 886.6718,221.9414 877.4903,213.9843 854.9071,195.88 846.1559,187.9304 838.31,179.2277 820.7515,157.628 813.1157,149.6025 808.5698,145.8497 804.0518,143.1587 800.06,141.8332 796.0919,141.67 792.8212,142.5295 789.9899,143.9902 787.1127,146.0754 783.4653,149.4909 779.7778,153.7226 776.0678,158.6816 767.913,171.7142 759.2095,188.3461 750.2818,207.8225 741.0219,230.192 730.8008,256.9394 724.9476,274.0976 720.428,290.7348 717.5322,306.0203 716.2156,319.9407 716.1435,327.2989 716.5192,334.7179 717.3328,343.0455 718.4341,350.2071 719.8284,356.597 721.6308,362.6199 723.6792,367.6894 725.8997,371.8224"/>
    <polygon points="666.9004,443.0903 665.1483,441.5166 650.4508,424.5061 645.9265,419.8958 642.1509,416.5864 638.0227,413.6953 634.1582,411.9302 631.1054,411.5557 628.7724,412.4373 627.0044,414.3571 625.394,417.6963 621.3867,432.7612 619.1397,438.4895 617.7075,440.8082 615.5356,443.4565 609.9638,448.7325 601.4807,454.7495 576.9016,469.9658 533.0345,495.1947 516.9232,505.1654 500.7618,515.7064 486.9938,525.4758 475.8483,534.2542 465.7618,543.1457 455.6894,553.2707 449.2445,560.6907 443.0495,568.9742 439.0003,575.603 436.2902,581.6956 434.9978,586.6203 434.3274,591.9828 434.3762,608.9815 433.9908,615.3191 432.8295,621.184 431.007,626.0796 428.5542,630.2679 425.2232,634.3837 420.3876,639.0881 414.7016,643.6829 401.4915,652.531 373.7872,668.8572 368.1977,672.6651 363.7583,676.3705 361.8514,678.4436 360.4679,680.4855 359.6583,682.4971 359.4574,683.9865 359.7122,685.7873 360.4053,687.4624 363.0389,690.9472 366.0401,693.6448 371.291,697.3028 376.072,700.0614 383.4131,703.7217 400.6063,710.8473 422.3698,718.3731 443.0383,724.5359 465.2299,730.1388 486.2973,734.4906 511.7618,738.66 533.8463,741.419 555.8842,743.1662 576.4068,743.7347 591.0965,743.1615 603.0197,741.4569 614.5177,738.4423 624.1664,734.459 628.7371,731.9189 632.879,729.1371 638.9583,723.9758 644.6694,717.5004 649.169,710.7688 653.538,702.2261 657.4479,692.2661 660.6891,681.7968 663.333,669.8113 665.7378,654.8257 669.2259,624.6149 672.5434,586.3832 674.8793,550.1617 676.1998,517.7826 676.4803,490.6352 675.7004,468.4664 674.907,459.6712 674.0384,453.862 672.9201,449.5174 671.4755,446.6511 670.2605,445.3779"/>
    <polygon points="660.8787,442.6324 656.9666,440.1244 633.2469,421.4613 624.4239,415.292 620.2499,413.0246 616.5815,411.7378 613.8455,411.5948 611.8075,412.4319 610.0733,414.3403 608.5259,417.6599 604.6975,433.0047 602.48,438.9609 598.5009,444.7024 592.8557,450.5211 568.231,470.6076 558.0561,478.2182 542.4026,488.8784 504.4036,513.4255 485.4951,526.8696 476.0071,534.4132 467.2785,542.0278 459.3944,549.6304 451.3602,558.3482 445.5645,565.5554 441.5821,571.2772 437.9282,577.6914 436.1086,582.1551 434.9735,586.5026 434.2988,591.661 434.3479,607.0346 434.0169,611.9925 432.9274,616.8221 430.9574,621.1547 428.4896,624.4697 425.1394,627.6909 421.0295,630.8259 415.4302,634.3844 403.3298,640.7494 375.459,653.6908 369.6288,656.8262 365.4636,659.4989 361.8365,662.6093 359.802,665.7216 359.528,668.3992 360.9017,671.5051 363.0166,674.0197 367.1765,677.5927 371.2201,680.4199 377.706,684.3607 393.6867,692.711 417.2643,703.6821 440.3953,713.6013 459.6232,721.0016 480.2792,727.8241 499.0486,732.9908 518.1264,737.3358 539.1928,741.1325 555.1703,743.1073 568.8203,743.7347 578.3289,743.1169 583.1997,742.2086 586.5539,741.2334 591.0841,739.5415 595.4134,737.5121 603.5395,732.5115 608.1139,728.9597 612.4884,725.0378 621.3589,715.453 630.1031,703.8365 639.2217,689.4619 647.5486,674.3475 653.2986,662.3474 655.9623,655.367 658.4816,647.6292 662.5283,632.3052 667.0209,609.3359 670.6764,583.2699 673.9635,550.2975 676.0261,517.9075 676.4906,492.7004 676.1598,480.6732 675.5655,471.6522 674.6794,463.6954 673.4993,457.0081 672.0239,451.8265 670.1532,448.1703 668.9567,446.7822 667.4376,445.6197"/>
    <polygon points="629.097,416.3394 621.2769,413.3973 614.868,411.8097 610.0933,411.6148 608.1353,412.0771 606.4476,412.9461 604.7455,414.5088 603.3872,416.5102 598.4192,428.502 596.7131,431.5011 594.955,433.7367 587.7541,440.1894 572.9803,450.9219 566.8336,455.7656 552.4992,469.2515 537.8116,484.53 509.6771,517.1793 497.3603,530.1218 489.9541,536.9815 480.694,544.758 469.7867,553.0906 446.5983,569.8416 441.5762,573.9198 437.6749,577.6736 435.0676,581.1696 433.3539,585.2644 432.7241,589.6171 432.9628,598.8886 432.5898,602.8896 431.0923,607.2859 428.5173,611.0781 423.9951,615.0851 417.6679,619.1026 388.5032,633.8393 376.7998,640.5753 371.5548,644.2461 367.1467,647.9514 363.6338,651.6946 361.4016,654.9356 359.8225,658.7573 359.5063,662.6255 360.4573,666.4943 362.5523,670.722 366.7038,676.4261 371.263,681.2507 377.0121,686.2365 384.0876,691.3152 395.0055,697.6894 405.4772,702.7282 417.411,707.6459 433.9703,713.5396 458.5586,721.1611 511.4278,736.3479 524.5403,739.7446 535.141,741.8373 545.6818,743.1904 556.0722,743.7308 565.9579,743.382 573.1619,742.4105 582.2506,740.0907 591.5288,736.6838 600.3975,732.3293 608.7647,727.0315 614.034,722.9694 618.2276,719.2562 622.239,715.2436 626.8129,710.0359 634.5359,699.4209 641.4536,687.5815 648.7063,672.4425 654.8409,657.1488 659.3131,642.3267 663.7217,623.8928 668.6513,598.8538 672.3574,575.2049 674.5153,554.4804 675.8931,529.8951 676.5059,494.8976 675.8185,467.6556 674.9319,456.435 673.9131,449.2513 672.6357,444.0223 670.8395,440.2627 668.5228,438.0794 661.5267,434.8162 643.8927,423.7547 636.6001,419.8345"/>
    <polygon points="606.1178,435.4777 603.4557,439.3881 598.8346,444.1867 592.9766,449.0081 576.5198,460.8607 532.7598,494.0752 492.8738,525.5677 475.6772,539.6595 462.7597,550.7805 452.7001,560.1442 445.3617,567.8061 441.1248,572.9169 438.4162,576.7607 436.4001,580.3691 434.9047,584.3221 434.1267,587.7748 433.7207,591.6035 433.8698,604.4829 433.5551,609.3909 432.2902,614.6872 430.1101,619.1652 427.9117,622.0725 425.0322,624.9436 421.5632,627.7794 416.7524,631.1377 406.6074,637.1752 377.2576,652.9826 369.9925,657.5809 364.8282,661.6301 362.3743,664.1468 360.9075,666.1542 359.9286,668.1574 359.4811,670.1577 359.6835,672.4915 360.2987,674.2189 361.2879,676.018 363.4434,678.8368 366.3654,681.7802 371.3799,685.8614 375.9274,689.0123 382.9677,693.2946 397.7325,700.8838 417.8632,709.4574 440.5812,717.6389 464.7144,725.1605 492.0003,732.5146 515.2936,737.7749 531.9137,740.7553 547.8997,742.7706 562.8332,743.6926 576.0119,743.392 581.7343,742.7426 586.2522,741.8758 596.469,738.848 605.7811,734.7073 610.1081,732.2469 615.0239,728.9696 623.3005,722.0872 627.4439,717.8788 631.3475,713.363 638.5056,703.4441 644.9104,692.4031 651.1452,679.2945 656.1297,666.6874 660.1869,652.6472 663.7907,636.1401 668.1631,609.8674 671.9229,579.9856 674.3804,552.6142 676.0131,522.69 676.4936,492.5022 675.7202,469.5475 674.8015,459.6765 673.7649,453.1374 672.4795,448.2892 670.778,444.8926 668.6118,442.8267 663.8548,440.4391 661.5118,438.9349 642.3674,423.562 636.5442,419.3684 631.3058,416.0449 625.859,413.2546 621.4335,411.795 618.0754,411.5879 615.4692,412.5865 613.6509,414.4508 612.0129,417.5722 608.1868,430.3843"/>
    <polygon points="588.432,441.2118 585.429,445.3639 581.996,449.3437 559.6019,472.4961 549.6931,481.61 539.4837,489.7825 530.4373,496.3284 499.5749,517.5661 479.7916,532.5825 469.3341,541.4459 461.1929,548.9918 453.9199,556.3942 447.6213,563.551 443.2021,569.2483 439.6192,574.6342 437.4208,578.6651 435.7189,582.9743 434.6872,587.1324 434.1406,591.5556 434.2276,604.6619 433.9359,608.9162 432.7627,613.2761 430.7384,616.7986 428.6931,619.0172 425.3993,621.5842 421.3148,624.0626 416.5682,626.4675 405.5937,631.1139 377.7362,641.6109 371.6835,644.2595 366.5552,646.9503 362.6323,649.6983 360.1844,652.5184 359.5482,654.168 359.4714,655.4254 360.3734,658.0537 362.1364,660.4641 364.7631,663.0759 368.198,665.8846 373.9304,669.9252 386.6757,677.7499 406.8334,688.9663 432.3343,702.2887 451.5672,711.5995 468.9439,719.2075 487.1091,726.193 502.6401,731.3585 521.1614,736.57 540.5284,741.0195 553.659,743.2068 562.4701,743.7347 569.8265,742.9674 575.5866,740.9963 582.2709,737.0618 586.6695,733.6976 591.0527,729.784 600.5291,719.6275 609.9283,707.6188 621.2071,691.2901 644.7849,654.5921 649.0852,647.251 653.1193,639.3772 656.8678,630.9909 659.6507,623.7665 662.2345,615.8541 664.6141,607.0061 666.785,597.0442 668.7437,586.0008 670.8894,571.3313 674.1546,542.4119 676.1381,513.4737 676.453,490.5029 676.0716,480.3125 675.3272,471.1082 674.217,463.0438 673.0637,457.5415 671.2889,452.029 669.4823,448.667 667.9326,446.8552 665.9755,445.3946 663.6638,444.3215 656.7052,441.9063 651.9914,439.509 643.0945,434.155 620.9123,420.0171 612.076,414.9069 607.5229,412.7947 604.0549,411.7323 601.1945,411.593 599.1092,412.4079 597.3657,414.266 595.9364,417.2175 591.6425,434.2204 590.2045,438.0642"/>
    <polygon points="603.1972,309.6643 604.7826,307.8498 606.5776,306.5549 608.6635,305.7434 616.4511,304.6483 619.1755,303.9542 621.3846,302.8598 623.2504,301.2809 627.5354,295.3116 632.2112,286.6467 637.1676,275.5105 641.5237,264.0636 645.7117,251.3446 649.5558,237.6943 652.8811,223.4917 655.1861,211.1864 656.8711,199.0362 657.7216,189.2151 657.9814,178.0055 657.4881,169.297 656.2806,161.2919 654.2941,154.1 651.4631,147.8244 648.5452,143.5304 643.7753,138.6144 637.7815,134.0017 630.6437,129.6886 620.2413,124.7134 608.3696,120.1954 595.2557,116.1301 581.1731,112.5147 566.4304,109.3479 551.3422,106.6298 533.1705,103.9625 515.2438,101.948 497.7089,100.5922 480.549,99.902 463.6975,99.8847 447.1932,100.5475 433.8932,101.6248 421.2854,103.184 411.7882,104.7816 402.8727,106.6935 394.9162,108.8341 388.082,111.0807 379.4757,114.4316 370.8261,118.346 362.1676,122.7834 353.5397,127.7044 343.2865,134.194 334.8781,140.0435 325.0183,147.5334 317.0453,154.1178 307.8325,162.3631 299.0698,170.9039 290.8177,179.6491 278.3417,194.4098 267.6409,208.9811 262.1463,217.4259 257.3881,225.5171 254.6199,230.8164 252.3546,236.3222 249.7044,245.7392 247.9747,257.2404 247.3319,267.759 246.9107,291.403 246.1715,300.4767 244.6947,308.0604 242.4463,314.2559 239.4961,319.1481 235.4877,323.5401 230.4545,327.639 217.2371,336.9762 214.0829,339.7517 211.2835,342.8393 208.6874,346.8073 206.9872,350.8797 205.9311,355.6089 205.3694,361.225 205.3557,371.1497 206.2714,382.5998 208.0431,395.3281 210.5983,409.1652 213.8662,423.9945 218.4881,442.3845 223.8821,461.638 229.0433,478.4304 233.6755,492.2878 238.5697,505.7077 243.6885,518.3933 248.9929,530.0691 254.4423,540.4924 258.8775,547.7869 264.4785,555.4401 268.9757,560.2772 272.342,563.094 276.6356,565.6733 280.8481,567.4211 285.9229,568.7076 291.1691,569.2417 296.5848,569.0844 302.1672,568.2964 307.9128,566.9384 314.6731,564.7662 322.5156,561.639 339.8321,553.2164 361.9906,541.0449 370.448,535.7008 379.5521,529.3397 389.1893,522.0528 401.8252,511.7935 425.7402,490.7744 453.443,465.0862 507.6132,413.5248 559.2465,366.2533 576.8883,349.5589 588.5769,337.535 594.3593,330.4572 596.3121,327.1793 597.8976,323.7479 601.908,311.9277"/>
    <polygon points="644.641,146.1175 637.5993,139.7539 629.174,133.7401 619.6638,128.1203 609.3377,122.9344 596.1245,117.3323 584.493,113.2149 572.2206,109.6225 559.1495,106.5722 548.0025,104.5314 533.1114,102.4878 520.4312,101.2639 507.1421,100.4088 489.8891,99.8632 472.2844,99.9039 458.247,100.3621 444.4957,101.2017 431.2269,102.4251 418.6347,104.0345 409.7983,105.4957 398.9828,107.7834 391.6543,109.7533 383.7552,112.407 376.495,115.422 369.4999,118.8771 361.1365,123.7507 353.1882,129.1597 345.6318,135.0126 338.4332,141.216 330.2103,148.992 312.421,167.7554 293.9162,188.7834 278.4191,207.1338 267.9161,220.6511 262.003,229.6017 260.1746,233.371 258.4408,238.0391 257.1526,242.8595 256.2461,247.8249 255.3041,258.1509 254.8787,280.796 254.284,290.8096 252.7938,300.4864 250.263,308.7319 248.7004,312.0922 246.6591,315.4359 241.6647,321.2791 235.764,326.3115 219.7812,338.0101 215.8997,341.531 212.8563,344.9438 209.9108,349.336 207.6688,354.3703 206.3804,359.415 205.5263,366.2177 205.2564,376.1882 205.8228,387.5039 207.1714,399.8281 209.2478,412.8025 211.9952,426.0733 215.3537,439.3249 219.2595,452.3143 223.6443,464.8925 229.4363,479.3757 235.6835,493.2378 243.371,508.7392 251.2947,523.5025 259.2675,537.1996 266.0169,547.6055 272.5983,556.2442 277.9048,561.7303 282.6272,565.1803 288.219,567.738 293.8826,569.0377 299.6243,569.2 305.4582,568.3473 312.0766,566.359 318.8818,563.4413 327.378,558.9634 356.4467,541.9808 395.258,518.0253 448.6525,486.4636 466.3172,475.4573 480.2697,466.2275 500.4172,451.6366 516.1209,438.8147 530.5979,425.4933 543.7523,411.8596 555.5876,398.1755 568.1329,382.1277 582.2061,362.2887 594.3631,343.4893 600.2706,333.273 602.9537,327.3607 605.1626,320.3404 607.9946,307.529 608.9663,304.76 610.1568,302.5464 611.5333,300.8802 613.201,299.7505 615.191,299.0835 621.6766,297.85 623.6292,296.8945 625.3181,295.4629 627.1622,292.9012 629.9347,287.769 635.7456,274.5091 643.6871,253.3079 650.5149,232.0906 655.0147,214.0227 657.3152,199.3041 657.9104,191.1929 657.9824,184.7815 657.6613,178.4887 656.9158,172.3766 655.7149,166.5219 654.0286,161.0132 651.828,155.9481 649.0877,151.4291"/>
    <polygon points="567.8798,109.3263 552.7546,106.6142 534.4024,103.9529 516.1762,101.943 498.2901,100.5904 480.8134,99.9018 463.7528,99.8845 447.174,100.5458 433.8878,101.6206 421.3097,103.1762 411.8321,104.7701 402.9313,106.6778 394.9842,108.8136 388.155,111.0554 379.5511,114.3992 370.8996,118.3059 362.2354,122.7353 353.5984,127.6486 343.3309,134.1298 334.9085,139.9738 325.0307,147.4593 317.0427,154.0424 307.8126,162.2893 299.0344,170.8353 290.7692,179.589 278.2773,194.37 267.5681,208.9662 262.0714,217.4263 257.3127,225.5323 254.5448,230.8409 252.2801,236.3561 249.6309,245.7877 247.9022,257.3032 247.2597,267.8306 246.8388,291.4749 246.1001,300.5405 244.6243,308.1141 242.3779,314.2992 239.4306,319.182 235.4271,323.5649 230.4013,327.6548 217.2092,336.9706 214.062,339.7404 211.2691,342.8228 208.6792,346.7873 206.983,350.8606 205.9295,355.5984 205.3691,361.2364 205.3554,371.2341 206.2689,382.8224 208.0364,395.76 210.5856,409.8614 213.8458,424.9724 218.4575,443.6457 223.8405,463.0643 228.9924,479.873 233.6174,493.656 238.5053,506.9357 243.619,519.4363 248.9198,530.9053 254.3672,541.1216 258.8021,548.2622 264.4043,555.7485 268.9036,560.4783 272.2722,563.2322 276.5696,565.7538 281.5017,567.6894 286.6075,568.8383 291.8855,569.2603 297.3339,569.0148 302.9495,568.1612 308.7284,566.7589 315.5268,564.5602 323.4114,561.4314 332.448,557.2866 342.6959,552.11 364.1074,540.4523 372.7422,534.9587 381.9909,528.4835 391.7399,521.1125 404.4728,510.7813 428.4784,489.6826 453.4374,466.5256 505.7083,416.8191 560.6914,366.296 578.303,349.5389 589.8982,337.5282 595.615,330.4666 597.543,327.1961 599.1074,323.7723 603.0606,311.9751 604.3304,309.7155 605.8912,307.9038 607.6574,306.6108 609.7087,305.8005 617.3572,304.7069 620.0296,304.0137 622.1953,302.9207 624.0237,301.3438 628.2205,295.3805 632.7966,286.7209 637.6442,275.5855 641.9027,264.1328 645.9954,251.4007 649.7512,237.7305 652.9997,223.5032 655.2513,211.1755 656.8973,199.004 657.7281,189.1675 657.9818,177.9435 657.4999,169.2272 656.3205,161.2177 654.38,154.0246 651.6145,147.7502 648.7639,143.4582 644.1032,138.5458 636.6014,132.8328 629.351,128.5995 618.8551,123.7237 609.4198,120.1519 596.5002,116.0943 582.5599,112.4863"/>
    <polygon points="533.667,103.9369 514.7259,102.0107 496.6475,100.6818 479.5894,99.9553 463.4834,99.8376 448.1879,100.3351 433.672,101.4546 424.5003,102.5503 413.5702,104.3178 403.2391,106.5338 394.3821,108.98 385.97,111.8245 377.3267,115.2154 366.711,119.97 357.7294,124.4786 346.8919,130.5169 337.8993,136.0509 329.0241,142.0194 320.3415,148.3967 311.9225,155.1502 303.8311,162.2386 296.1233,169.6115 288.8462,177.2087 276.9489,191.2253 271.0538,199.0643 265.6922,206.836 260.876,214.457 255.8286,223.2883 251.9998,230.8469 249.6625,236.7114 247.1422,245.6954 245.4498,255.7763 244.5094,267.7372 244.0811,291.789 243.6174,299.9867 242.1995,308.8684 239.9568,315.4059 237.1485,320.1222 233.3981,324.2089 228.701,327.9865 216.4815,336.4486 213.2363,339.2641 210.6998,342.0659 208.3527,345.6727 206.8173,349.3845 205.864,353.7124 205.3569,358.8828 205.3446,368.1249 206.3858,380.9584 208.108,393.5987 210.997,410.1779 215.348,431.3544 219.9853,451.4106 224.5235,469.1889 229.5419,486.8851 234.0637,501.104 237.8869,511.8808 242.901,524.3566 247.0815,533.3979 252.4893,543.382 256.9361,550.2348 261.465,556.0155 266.0503,560.6627 269.5095,563.3619 273.9531,565.8303 279.0921,567.7239 284.4516,568.8477 290.0287,569.2604 295.8187,569.0203 301.8147,568.1854 308.007,566.8137 316.2376,564.3534 324.7414,561.2195 334.4633,557.0891 344.4134,552.428 366.8553,540.8384 375.6854,535.3193 382.6146,530.4963 392.1288,523.2043 399.39,517.1281 406.704,510.5706 416.4885,501.1519 433.7444,483.1607 477.2006,436.0717 490.3887,422.5912 503.7773,409.6881 525.3211,390.5111 573.1724,351.3351 583.6222,342.3597 590.3513,336.0979 594.4298,331.7555 597.3397,327.5707 599.3873,323.3701 602.71,314.2625 603.957,312.1078 605.4811,310.3654 607.3353,308.9994 609.5984,308.1101 617.6149,307.0284 620.333,306.3721 622.7037,305.2227 624.5354,303.6666 628.6018,298.1109 633.1811,289.6597 637.3955,280.078 641.6201,268.6423 645.6865,255.5976 649.4315,241.2867 652.6942,226.1582 654.9849,212.9407 656.6998,199.8667 657.6136,189.3307 658.0,177.3888 657.6581,168.2018 656.6466,159.8421 654.9036,152.4065 652.365,145.9709 648.9629,140.599 644.3835,135.8298 638.5974,131.4044 631.6495,127.3089 621.3931,122.6333 611.9917,119.2333 598.8697,115.3921 587.4174,112.6358 572.1724,109.5758 553.0341,106.4579"/>
    <polygon points="478.7642,99.8535 464.5525,99.8869 447.6583,100.5695 433.9635,101.6788 423.5029,102.9233 413.6021,104.4876 404.3282,106.3743 395.7609,108.586 388.8661,110.7927 380.2299,114.1139 371.5994,118.0168 363.0043,122.4553 354.4763,127.384 344.3788,133.8822 336.1179,139.7311 326.4414,147.2022 317.0793,155.0912 308.0893,163.3155 299.5268,171.7896 291.4443,180.4246 279.1723,194.9231 267.6211,210.568 258.3614,225.3209 255.5894,230.499 253.3166,235.8841 250.6527,245.1131 248.9112,256.4288 248.2634,266.8341 247.8387,290.4761 247.0932,299.6532 245.6023,307.3676 243.3293,313.6971 240.3409,318.7103 235.8652,323.5951 231.1417,327.4355 217.5971,337.0488 214.3519,339.9065 211.469,343.0843 208.7938,347.1654 207.0411,351.3491 205.9524,356.2 205.3733,361.9472 205.293,370.2632 206.0826,381.6255 207.7672,394.2101 210.2713,407.803 213.5202,422.2751 218.1534,440.1468 223.5847,458.8782 228.7892,475.3242 234.4256,491.7354 240.4227,507.6403 245.6438,520.1416 251.0231,531.654 256.5172,541.9167 260.9656,549.0693 266.5545,556.5084 271.0197,561.1322 274.3494,563.7589 278.8605,566.2636 283.0547,567.84 288.0938,568.9274 293.2891,569.2647 298.6396,568.9138 304.1434,567.9369 309.7988,566.3959 316.4444,564.0235 324.1482,560.6855 342.0929,551.3753 363.1427,539.2836 371.7089,533.6137 380.9455,526.9577 393.2884,517.4104 409.037,504.4479 451.2193,467.5509 484.7017,436.7837 545.7077,379.7781 567.2766,359.144 582.7203,343.4173 589.1075,336.3106 592.768,331.7271 594.9406,328.2937 596.848,324.3764 601.3291,311.0941 602.5143,309.004 604.0982,307.1528 605.8933,305.8331 607.9815,305.0065 615.7996,303.8918 618.5427,303.1858 620.7699,302.0731 622.6531,300.4694 626.9851,294.422 631.7227,285.6891 636.7559,274.5437 641.8119,261.4432 646.041,248.7513 649.8982,235.2654 653.2031,221.3403 655.4595,209.3324 657.0642,197.5032 657.8214,187.9477 657.981,178.8046 657.4771,170.1986 656.2436,162.2495 654.2147,155.0733 651.3238,148.7825 648.3456,144.462 643.4816,139.4993 635.672,133.7043 628.1541,129.3945 617.3363,124.4147 605.1535,119.8874 591.8701,115.8134 577.7827,112.194 563.1985,109.031 548.4013,106.3272 530.6703,103.6933 513.1595,101.7317 495.8892,100.4493"/>
    <polygon points="748.8807,196.2201 741.046,214.0234 733.354,235.1385 724.2541,264.3784 720.092,279.5534 717.8788,290.2327 716.5868,301.8279 716.1151,315.7371 716.77,339.4548 718.3915,359.91 719.4612,367.2892 720.7587,373.2794 722.2941,377.9395 724.0438,381.3813 725.193,382.7963 726.9042,384.1391 729.0005,385.1507 731.498,385.8876 737.6769,386.7529 755.3642,387.6091 763.1045,388.4271 769.5396,390.0637 772.0517,391.3003 773.7201,392.5821 775.1193,394.4116 775.9134,396.5641 776.2009,399.3911 775.9244,402.4425 774.3375,408.3211 769.3981,419.997 768.4754,423.6209 768.5878,425.1043 769.0542,426.1581 769.9088,427.0336 771.2169,427.7271 775.2339,428.6822 781.0762,429.0795 788.9448,428.843 796.6357,428.0469 805.4994,426.3182 814.2191,423.3627 820.0967,422.3807 824.6005,420.2847 828.5902,417.3071 833.4884,413.0189 844.7049,401.8498 854.4959,390.6143 865.1386,376.5548 874.2263,362.705 882.645,347.973 891.0061,330.9653 897.4715,315.581 902.6589,301.2077 906.6431,287.8704 908.4136,278.9844 909.0565,269.9617 908.9169,265.4036 908.3426,260.1324 906.113,249.7174 904.3863,244.3541 902.5617,239.8497 898.1761,231.739 895.0214,227.2656 891.308,222.8355 887.0404,218.461 882.2638,214.1518 872.6826,206.5822 847.6271,188.4684 842.1882,184.0502 837.0596,179.3193 831.7016,173.5335 826.5181,167.0851 821.4043,159.8924 813.5231,147.7254 810.4787,144.0748 808.6632,142.7364 806.5948,141.8874 804.5716,141.5926 802.1319,141.7667 796.9896,143.4093 790.632,146.68 784.1715,150.9103 778.1158,155.7124 772.8283,160.6866 767.4377,166.65 762.0574,173.6511 757.8353,179.9818 753.743,186.9"/>
    <polygon points="775.4985,158.5408 770.3896,164.013 765.2354,170.4225 760.1354,177.7738 756.1584,184.2884 751.3877,193.1019 746.9071,202.4558 742.7725,212.075 734.445,234.4347 725.1855,263.32 721.4232,276.2902 718.9564,286.4814 716.984,297.925 716.1681,306.9539 716.4223,317.722 717.7077,331.2264 719.5336,342.653 721.7274,351.2262 723.4819,355.7121 725.4173,359.0713 727.6212,361.1885 730.4744,362.6809 733.5165,363.5661 737.5937,364.2105 756.4157,365.3553 763.731,366.3623 766.94,367.2164 769.7368,368.3845 772.0516,369.9294 773.5688,371.5511 774.6357,373.4696 775.3961,376.212 775.668,379.3746 775.473,383.504 774.0388,392.0383 768.9387,413.2872 768.3416,417.7156 768.3938,421.5094 769.46,424.8613 771.5549,426.9492 775.2036,428.4318 780.3514,429.0716 784.9782,428.9425 789.7579,428.3485 794.4198,427.3857 799.2395,425.9811 805.0216,423.6179 813.5909,418.6549 818.2951,417.0574 819.8772,415.822 821.044,413.8641 822.1964,410.8239 828.2958,388.9143 832.9335,375.2146 838.4829,362.2615 845.6065,349.1347 849.7091,342.8109 854.1058,336.7923 858.7255,331.1602 863.4853,325.9644 873.0703,316.8956 890.3045,302.3216 895.0059,297.7081 899.0803,292.947 903.2525,286.8365 906.3581,280.8556 908.3262,274.9522 909.0565,269.0291 908.8525,265.5149 908.2229,262.3912 907.092,259.0375 905.5161,255.6287 901.1127,248.6887 894.2853,240.7806 887.7017,234.6293 880.1619,228.5288 854.0331,210.0374 846.5696,204.4354 839.3718,198.2174 834.3904,192.9394 830.1225,187.0928 827.1429,181.5362 824.6689,175.2509 819.2055,158.6647 817.4459,154.5393 815.5042,150.9237 812.598,146.8304 809.5655,143.8131 806.8106,142.2373 803.647,141.5932 799.2761,142.2335 794.4199,144.2793 787.8868,148.2266 781.4313,153.1281"/>
    <polygon points="779.8481,153.9098 774.3595,158.5382 768.7232,164.209 763.0671,171.0058 758.6128,177.2569 754.287,184.1805 749.1422,193.6309 744.3696,203.7023 740.0333,214.0442 732.1845,235.8929 723.2556,265.5129 719.6852,279.0703 717.769,288.48 716.6433,298.33 716.1517,309.6096 716.4263,330.2706 717.528,351.3662 719.0915,365.3896 720.0467,370.3633 721.2759,374.7345 722.6704,378.0476 724.1459,380.2257 726.1046,381.8241 729.0268,383.0989 735.9912,384.3056 754.9286,385.2526 763.0432,386.1094 769.7939,387.8257 772.4266,389.1243 774.1737,390.4719 775.6376,392.3978 776.4679,394.6677 776.7684,397.6543 776.4794,400.8844 774.6499,407.5976 769.2805,420.5484 768.7385,422.7608 768.7034,424.4048 769.5918,426.3993 771.5521,427.6577 775.2701,428.5898 780.078,429.0289 790.6252,428.7842 800.9699,427.4713 806.7695,426.0718 813.7442,423.1219 818.0266,422.2723 820.2177,421.4546 823.7632,419.0431 828.4773,414.604 835.7476,406.8988 844.179,397.1759 855.7476,382.4343 866.7141,366.779 877.4108,349.6545 886.8777,332.6062 896.3071,313.2468 904.0765,294.481 906.4042,287.6475 907.7638,282.5477 908.6465,277.4361 909.0022,273.1584 908.9752,267.6311 908.2725,261.3062 907.0454,255.2785 905.2425,249.0099 903.1641,243.5127 900.4826,237.9563 897.7017,233.3143 894.3637,228.6863 887.8084,221.3581 879.8707,214.1773 870.9386,207.1879 847.3541,189.9399 841.6937,185.3322 836.8127,180.875 830.8391,174.3555 825.3905,167.1786 820.6589,159.9203 811.8368,144.9864 810.4264,143.4656 809.0459,142.4963 807.4396,141.8608 805.5628,141.592 803.2335,141.7507 800.8724,142.3079 794.2971,144.9497 787.0558,148.9266"/>
    <polygon points="780.1743,153.48 774.5757,158.034 768.819,163.6632 763.0389,170.4619 758.4875,176.7495 754.0698,183.7408 748.8216,193.3145 744.8996,201.4604 740.4011,211.9476 735.6522,224.4528 731.6371,236.246 722.7882,266.044 719.4842,278.8559 717.6687,287.9213 716.6233,297.3132 716.1478,308.803 716.4541,331.2498 717.5347,352.5035 718.9989,365.8099 719.9462,370.7254 721.1849,375.0136 722.5959,378.1992 723.8981,379.9592 725.8996,381.511 728.8964,382.7406 736.0591,383.8919 754.7247,384.8025 763.0145,385.6732 769.4107,387.229 772.1941,388.4933 774.0644,389.8117 775.6795,391.7116 776.6266,393.9637 777.0302,396.9515 776.8131,400.2033 776.1082,403.5928 774.8721,407.4871 769.3884,420.5462 768.8346,422.7639 768.8388,424.6597 769.7065,426.4031 771.7089,427.6599 775.5052,428.5906 780.4086,429.029 791.1244,428.7847 801.5114,427.4738 807.1928,426.0759 813.7046,423.0955 817.5496,422.2745 819.3878,421.5713 822.5354,419.4388 826.8809,415.3054 833.7312,407.9465 841.8719,398.5123 854.8509,381.939 865.9846,366.05 876.894,348.7365 886.5704,331.6128 896.1984,312.3807 904.0729,294.0925 906.4087,287.5436 907.7672,282.6713 908.6477,277.7511 909.0023,273.5851 908.9754,268.1436 908.2747,261.8555 907.0498,255.82 905.2446,249.5119 903.1537,243.9611 900.4422,238.3372 897.618,233.631 894.2173,228.9339 887.5218,221.4891 879.4074,214.1893 870.2886,207.0836 847.3983,190.3649 840.7004,184.9058 835.8308,180.3999 829.9173,173.8277 824.1575,165.9917 819.7104,158.8472 811.7409,144.605 810.4357,143.206 809.1201,142.3312 806.0267,141.5917 801.4146,142.2753 794.8321,144.8018 787.5066,148.6296"/>
    <polygon points="829.7628,197.3111 824.5115,191.4588 820.5003,185.0447 818.8877,181.1917 817.8419,177.6531 816.5129,169.7079 815.2647,154.5152 813.9117,148.4709 812.4528,145.3079 810.9485,143.2548 809.1619,142.0729 806.7248,141.5912 804.5249,141.732 801.5963,142.4039 794.7833,144.9465 787.1607,148.7507 779.533,153.6394 773.7227,158.2943 767.7674,164.1016 761.8125,171.1551 757.1441,177.6921 752.6333,184.9587 747.3055,194.886 743.3498,203.2986 738.8461,214.0685 734.14,226.8004 730.2121,238.6704 722.085,266.843 719.4321,277.3944 717.7748,285.423 716.5645,294.3662 716.1194,301.381 716.6774,316.4082 717.8652,331.406 719.3162,341.3163 721.1972,348.1778 722.4818,350.9049 723.9197,352.6858 725.7683,354.066 728.499,355.2396 735.2831,356.4758 755.1619,357.6396 763.6319,358.7782 767.3546,359.7446 770.5948,361.0677 773.2698,362.8193 775.0184,364.6598 776.2453,366.8393 777.118,369.9575 777.4298,373.5556 777.2062,378.2536 775.3852,388.7191 769.6708,411.7581 768.9792,416.6432 769.0397,420.8076 769.5554,422.9887 770.2744,424.4743 771.2928,425.7106 772.6965,426.7542 776.8972,428.372 782.764,429.07 787.9457,428.9293 793.1627,428.2811 798.6282,427.0761 803.2722,425.5102 806.5229,423.9342 808.938,422.2931 810.8196,420.4994 813.3529,417.4034 815.0136,416.0622 815.6903,413.4964 816.8005,398.618 818.0848,388.359 819.5981,380.2024 821.8463,371.1841 824.9832,361.5616 827.9804,354.1496 832.8585,344.3203 837.149,337.213 841.9195,330.5153 847.0853,324.3665 852.5402,318.8674 858.1645,314.0704 863.8337,309.9725 869.4276,306.5154 891.883,294.9994 895.5858,292.6108 899.8476,289.1713 904.0816,284.6486 906.5759,281.0443 908.5163,276.2606 909.0565,272.1335 908.8277,268.9146 908.1214,265.9534 906.8525,262.6821 905.0826,259.272 902.1976,254.8435 899.3673,251.1925 892.3389,243.6864 884.7357,236.9907 875.9264,230.2654 846.5576,210.5394 837.866,204.2563"/>
    <polygon points="895.8107,229.5085 892.6096,225.5494 888.2803,220.884 883.4487,216.3136 873.5559,208.1774 851.179,191.3978 841.5967,182.9909 833.1564,173.684 816.7918,152.633 811.102,146.405 808.063,144.0038 804.9103,142.3702 802.0143,141.6615 798.966,141.7122 795.0453,142.9025 790.7377,145.3027 786.0676,148.8157 781.0864,153.3851 775.8699,158.9974 771.4109,164.4777 766.0171,172.017 761.5604,179.0702 757.2036,186.752 753.0026,194.9469 745.2512,212.2082 737.3799,232.5414 727.6914,260.4726 722.2744,277.8975 718.9534,291.6683 716.95,304.985 716.1395,318.3883 716.2202,327.147 716.779,338.039 717.6208,347.4669 718.7818,356.112 720.1182,363.1008 721.6693,368.9615 723.5893,374.1441 725.7159,378.1591 727.4387,380.5002 729.0973,381.9999 731.4503,383.3242 734.2324,384.2671 740.9414,385.3166 756.2946,386.1025 762.8122,386.8033 768.6643,388.3914 770.7609,389.5315 772.1587,390.7185 773.3349,392.4228 774.0045,394.4449 774.2472,397.1317 774.0138,400.0778 772.6771,405.9187 768.5464,418.4135 767.7782,422.587 767.9254,424.5982 768.5038,426.0265 769.5704,427.146 770.9375,427.8787 774.249,428.7445 778.9033,429.0857 784.7747,428.8431 791.4817,428.0198 800.8836,426.1256 814.5266,422.4215 823.4432,421.1824 826.0578,420.3082 828.7665,418.8631 831.8561,416.5983 836.4229,412.5006 847.4382,400.8339 857.149,388.8984 866.2127,376.1764 875.178,361.7379 882.3478,348.542 889.7365,333.0217 896.6514,316.2597 901.9432,301.4282 905.7594,288.6307 908.1674,277.1847 909.0356,267.8063 908.6377,259.5122 906.8006,250.9859 903.6386,242.5745 899.1657,234.3413"/>
    <polygon points="893.6969,242.369 886.6074,236.0879 878.4581,229.8312 851.5072,211.6141 843.4672,205.8118 835.8351,199.3752 830.7216,193.92 826.5775,187.8919 823.6372,181.3766 821.8325,175.0544 818.3838,158.9901 817.1015,154.8505 815.5607,151.2387 813.0732,147.1582 810.1528,143.8938 807.3703,142.1981 804.3796,141.5927 800.1244,142.1946 794.5192,144.4966 787.7579,148.4339 781.0414,153.3261 774.8629,158.7864 769.5492,164.3652 764.2025,170.953 758.9325,178.5511 754.8412,185.3021 749.96,194.438 745.4081,204.1134 741.2422,214.0193 733.5806,234.9923 724.4475,264.1585 721.0421,276.2262 718.742,285.9295 716.8842,296.9014 716.1494,304.9572 716.4831,315.2163 717.8914,329.1805 719.6749,340.057 721.7878,348.0435 723.4044,352.0158 725.1442,354.8492 727.1197,356.6646 730.0143,358.1506 733.1254,359.026 737.3214,359.6586 756.1173,360.7973 763.7074,361.855 767.0387,362.753 769.941,363.983 772.3415,365.6122 773.9138,367.3254 775.0188,369.3561 775.806,372.2656 776.0874,375.6299 775.8855,380.0355 774.4006,389.1774 769.113,412.0575 768.4934,416.8321 768.5475,420.9216 769.6538,424.5339 770.567,425.7536 771.8266,426.7836 775.6067,428.3809 780.9256,429.0703 785.6846,428.9313 790.5683,428.2912 795.2851,427.2539 800.0883,425.7406 806.0512,422.9913 813.5855,417.7735 817.1566,416.263 818.0926,415.5138 818.9645,413.8866 819.6962,411.3305 823.9018,387.7266 825.7409,379.8162 828.2121,371.2066 831.4407,362.1538 834.4081,355.2596 837.8544,348.4352 841.7629,341.8247 846.0913,335.5605 850.7739,329.7514 855.7258,324.4718 860.8485,319.7536 869.4827,313.0769 889.7261,299.7339 894.7413,295.6669 898.047,292.4242 902.6517,286.7458 906.0789,281.1174 908.2507,275.4995 909.0565,269.768 908.8314,266.3241 908.1366,263.2391 906.8888,259.905 905.1498,256.4959 900.2901,249.5037"/>
    <polygon points="671.3719,573.9829 672.7211,566.5999 673.8655,557.9806 675.5408,536.3833 676.3936,510.929 676.3584,482.9353 675.2554,460.4517 674.418,452.8407 673.3643,446.7175 672.0915,442.0099 670.1822,437.9677 668.1779,435.74 665.6355,434.2644 656.787,431.3875 643.3673,425.4938 634.0167,421.7528 618.3273,416.4765 606.3492,413.3131 597.4971,411.7513 591.3141,411.6893 588.997,412.2713 587.155,413.2252 585.5366,414.6555 584.2364,416.4141 579.7056,425.5768 576.8575,429.6468 572.0825,434.1134 557.2506,446.556 552.8155,451.1176 548.695,456.2799 543.99,463.2931 539.1193,471.2883 523.9987,498.6415 514.4787,514.7948 508.124,524.3893 502.0689,532.0834 498.0551,536.5049 492.2793,542.12 486.0947,547.3723 479.6274,552.2309 466.4874,560.7274 442.9476,574.049 436.2156,578.7814 433.6476,581.7708 432.3069,584.8804 431.9789,587.8367 432.2576,593.8556 431.6983,596.5468 430.1838,599.0219 427.3093,601.5436 423.744,603.5594 418.986,605.6067 391.7561,615.1007 379.2143,620.371 373.7177,623.3845 369.1757,626.5312 365.5342,629.8181 362.3935,633.7543 360.3342,637.8907 359.4717,642.2352 359.9659,646.8704 361.8765,652.4145 365.1763,658.6846 368.9299,664.1607 373.9065,669.9761 380.4125,676.0516 388.7592,682.2972 396.3599,687.0344 405.1326,691.7702 418.514,698.0105 441.1958,707.0262 491.9145,725.2007 504.7655,730.4213 521.4077,737.8488 527.6871,740.2636 533.4164,742.0798 538.8688,743.2517 544.3221,743.7296 549.8821,743.4621 554.0656,742.7411 559.0143,741.228 565.323,738.5261 571.9407,735.0485 578.7683,730.8105 585.6979,725.8153 591.6392,720.9292 597.5191,715.4859 603.2866,709.495 608.9004,702.9806 614.3287,695.9864 624.5468,680.8486 635.3183,662.2086 647.6795,638.4564 652.8297,626.7991 660.179,608.721 665.0087,596.3605 667.579,588.8266"/>
    <polygon points="669.278,588.8174 673.5307,543.5621 676.3279,504.2638 676.3546,488.961 675.0309,475.0326 673.8571,468.4577 672.6715,463.7111 671.2673,459.7051 669.3143,456.1963 667.9466,454.6412 666.3469,453.4035 658.0202,449.5926 652.0838,445.3375 646.7811,440.7088 641.6465,435.7131 625.8681,418.4791 622.0101,414.637 619.6406,412.7582 617.8427,411.8005 616.2749,411.5349 615.0055,412.0064 613.5675,413.9008 612.2959,417.6688 608.7098,440.7879 607.4685,445.7115 605.9931,449.3328 602.9218,454.7347 599.1415,459.5938 594.1108,464.6451 587.1957,470.4859 581.1929,475.0407 575.2492,478.8661 569.0519,482.2153 561.6667,485.6607 545.3918,492.06 507.2572,505.4602 495.9561,510.0385 487.5128,514.0059 477.9595,519.3939 471.2057,524.0668 465.2496,529.0619 458.8594,535.7292 452.5494,544.2463 447.4647,553.1267 442.2229,565.0482 438.535,576.3727 437.0629,582.8632 436.1171,589.7277 435.6397,598.6308 435.5933,619.6651 434.8683,625.6872 433.4207,630.9242 431.34,635.0517 427.8492,639.4478 423.1885,643.5327 418.1148,646.8773 411.145,650.4663 403.003,653.8367 373.6921,663.65 365.7697,666.7698 362.5747,668.4676 360.4375,670.1489 359.4922,671.8207 359.7893,673.3805 360.6921,674.5376 363.0667,676.3716 369.5347,679.6808 378.6576,683.3015 403.7117,692.4012 419.265,699.022 429.0492,704.1099 447.3668,714.8655 458.4035,720.2902 472.4223,725.5342 486.1245,729.4788 505.7761,733.9454 530.3013,738.4031 552.2102,741.6366 569.7891,743.4311 581.0244,743.6913 589.5579,742.7175 592.3231,741.9596 595.9028,740.4653 601.521,737.0145 607.672,731.42 614.2779,723.2121 619.4488,715.551 633.9806,692.6188 649.6264,669.4994 653.1751,662.8484 656.568,654.7438 659.1464,646.9213 661.5865,637.6545 665.481,617.5052"/>
    <polygon points="434.2637,614.8807 433.1681,620.1176 431.4472,624.3954 429.1267,627.9965 425.3643,632.0621 420.6175,635.99 414.1702,640.3222 401.8949,647.0413 373.637,660.4425 368.6698,663.1722 364.5768,665.8665 361.1811,668.9741 359.6694,671.6148 359.5324,673.8044 360.0354,675.282 360.9909,676.8237 363.2358,679.2455 367.6454,682.6538 371.9191,685.3255 378.7341,689.0164 397.4556,697.7246 430.4747,711.8042 447.8702,718.7526 463.9852,724.4484 481.8177,729.7312 497.9892,733.6883 518.1352,737.7436 540.6481,741.2968 558.0047,743.1468 572.8729,743.7347 583.1041,743.1558 588.266,742.3048 592.7413,741.1004 597.3718,739.4519 601.7307,737.4926 605.842,735.2408 610.4812,732.1803 618.2689,725.674 626.5021,716.7726 634.4647,706.1061 642.694,692.8905 649.7615,679.5598 655.0069,667.8284 659.196,654.8692 662.4723,641.4307 666.8003,617.4281 670.7251,586.7943 673.9033,551.9712 676.0579,516.6757 676.4918,492.815 675.6276,472.8688 674.6015,463.7363 673.4445,457.4078 672.0125,452.5548 670.3059,449.3152 667.9431,447.0504 661.8278,443.9883 658.013,441.2131 636.2901,421.6013 628.2807,415.2033 624.4696,412.9062 621.4538,411.7503 619.1744,411.5572 617.1211,412.3531 615.4275,414.2828 613.9097,417.7135 610.1007,434.1355 607.9279,440.3031 606.1698,443.2693 603.5252,446.7374 597.1832,453.0437 591.1421,457.8683 574.2942,470.3882 563.8601,477.4459 549.0897,486.3661 507.3711,510.1159 489.1075,521.7447 479.1031,529.0851 471.4658,535.3794 463.1926,543.0859 455.9042,550.8649 449.6053,558.5866 444.3237,566.0972 439.538,574.3712 436.7657,580.8612 435.4011,586.0238 434.6143,592.0416 434.6203,609.5175"/>
    <polygon points="433.664,609.4419 432.4253,614.5499 430.2897,618.8299 428.1352,621.5924 425.3109,624.3095 421.1609,627.5141 416.3234,630.6626 405.1905,636.8116 377.6586,650.5952 371.0037,654.4427 365.5436,658.272 362.8969,660.6615 361.275,662.5734 360.1421,664.4872 359.5429,666.4044 359.5221,668.3265 359.9559,669.9565 360.7801,671.6648 362.7179,674.3621 365.4554,677.2056 370.2674,681.1932 376.3045,685.3661 383.4547,689.6819 398.3082,697.4506 418.265,706.4135 440.5418,715.1404 464.2409,723.2915 488.4646,730.5268 509.3849,735.8393 526.6334,739.4549 542.8515,742.0535 557.6605,743.4915 570.6816,743.6256 579.8937,742.6379 588.9946,740.1665 598.2015,736.1952 602.5352,733.7645 607.51,730.4814 612.2491,726.8214 616.7634,722.808 625.1616,713.8166 633.3967,702.8092 640.8432,690.72 648.6013,675.7425 654.6697,661.8136 659.0408,648.1953 662.9384,632.473 667.6738,607.2703 671.4146,580.0421 674.1439,552.1229 675.958,522.2061 676.5057,494.8437 675.7646,471.8116 674.8092,461.7089 673.7125,454.8857 672.3403,449.6912 670.4183,445.8163 667.8498,443.4405 662.1922,440.8232 659.2422,438.9998 638.125,423.0328 626.6997,415.5551 621.7472,413.0947 617.3897,411.7209 614.146,411.6413 611.9106,412.6121 610.1351,414.5213 608.5422,417.7165 604.7391,431.1266 602.708,436.2553 599.8504,440.4834 594.8773,445.7395 590.1085,449.8199 575.8133,460.7787 558.2073,475.0468 507.1408,513.5882 484.3613,531.454 472.1411,541.6035 462.3116,550.269 453.5624,558.6062 446.1555,566.4935 441.832,571.7845 439.0268,575.7776 436.6582,579.9797 435.1136,584.0296 434.2237,587.9862 433.8261,591.8579 433.9722,604.6587"/>
    <polygon points="399.7239,693.4147 415.9042,701.2408 434.3075,708.9065 457.2183,717.373 494.5142,729.9194 518.0952,737.1019 532.2931,740.5776 543.0835,742.552 554.8715,743.6831 563.7975,743.4867 571.7634,742.1565 578.7799,739.7735 587.0009,735.8548 595.0288,730.8438 600.2437,726.9252 605.3277,722.5638 610.2646,717.778 615.0414,712.5906 619.6481,707.0306 624.7996,700.1227 633.721,686.3447 643.0101,669.605 648.6601,658.4288 651.7975,651.518 654.7434,644.0346 658.1569,634.1502 663.5548,615.5693 668.0064,596.0215 671.8581,572.4946 674.3436,549.769 676.009,522.2414 676.4899,492.2972 675.6792,469.3361 674.8218,460.1894 673.6596,452.7929 672.1894,447.2096 670.2068,443.1615 668.7668,441.5307 667.0652,440.3387 658.3519,436.7101 635.7176,423.2911 620.9607,415.7844 614.5368,413.234 608.9715,411.7635 604.8975,411.6255 603.2785,412.0527 601.8487,412.8379 600.0453,414.6737 598.5374,417.3575 594.6965,428.7207 592.8688,432.8654 590.9732,435.7723 587.1339,439.9853 564.8445,459.2406 528.1068,496.6474 499.8539,523.9907 483.0622,538.6502 450.4434,565.05 444.0569,570.7829 439.7915,575.1926 436.1605,580.0445 434.0199,585.0231 433.1641,590.5207 433.3709,600.5248 433.0242,604.4945 431.6313,608.7346 429.234,612.3026 425.0142,615.9976 419.0803,619.6398 410.9489,623.6981 389.7884,633.1391 380.3745,637.6816 371.4898,642.7562 365.1915,647.4667 362.8072,649.8643 361.011,652.294 359.8702,654.7585 359.4574,657.2606 359.8834,659.9987 361.0616,662.7697 362.9533,665.7463 365.5267,668.9128 369.9838,673.4004 374.0884,676.9401 380.5933,681.8505 386.2682,685.6459"/>
    <polygon points="360.6036,688.978 362.8084,691.1412 366.0852,693.3643 370.3439,695.6287 377.3451,698.6866 387.7039,702.5362 417.1709,712.5575 453.0958,725.5937 465.913,729.2763 481.2546,732.7591 499.0478,735.938 518.1574,738.7035 544.2752,741.6831 565.0132,743.2398 582.8302,743.7347 596.8497,743.045 602.3726,742.2185 607.6154,740.9962 612.3835,739.5074 617.532,737.3952 622.1232,734.9631 626.2307,732.2537 630.5067,728.8026 634.3262,725.1052 639.1704,719.5061 643.8964,712.995 648.5716,705.3797 652.5715,697.6393 656.0522,689.6436 658.5665,682.7215 660.9623,673.9516 662.7913,665.3493 664.956,652.5008 666.9712,637.4334 669.1712,617.068 671.1109,595.4048 674.7074,542.4298 675.9519,518.0507 676.4873,499.9501 676.3022,485.0631 675.3867,471.5817 673.9541,461.3325 673.0197,457.3232 671.9376,454.31 670.9669,452.5502 669.7469,451.1157 664.2051,447.4113 660.2279,443.3116 655.2204,437.0584 643.7602,421.5436 638.0207,415.0447 635.0322,412.6728 632.6241,411.6237 630.5475,411.7663 628.9334,413.1337 627.6844,415.4577 626.678,418.5735 623.0949,437.3771 621.9219,441.5957 620.5371,444.9461 617.7371,449.3229 614.4246,453.2116 610.3325,456.9702 604.8894,461.0587 597.1787,466.0799 585.6622,473.0151 573.6211,479.258 558.1311,486.0961 514.5258,503.944 503.7261,508.7536 493.3776,513.8776 483.8043,519.357 475.1902,525.2142 469.0332,530.1708 462.2349,536.6788 458.6057,540.7274 454.248,546.2547 447.8085,556.119 442.1013,567.2718 438.1066,577.7039 436.5739,583.6931 435.6184,590.1263 435.1993,597.5583 435.3311,613.5676 435.1101,619.9726 434.22,626.7651 432.676,632.3915 430.3269,637.3873 426.9883,642.1887 422.7303,646.7968 417.5894,651.2149 410.6742,656.0374 402.7602,660.6271 394.1108,664.995 373.6483,674.5547 365.3195,679.1753 361.8719,681.8281 359.8768,684.3996 359.4749,686.4853"/>
    <polygon points="313.3738,566.671 322.2091,564.1931 332.2426,560.8201 346.3021,555.5757 359.3102,550.5503 367.5407,546.9977 388.8685,536.4347 407.7614,525.7594 428.1723,512.7389 446.5481,499.5158 469.679,481.583 494.5651,461.2109 519.8221,439.1832 540.3914,419.912 561.8169,398.2036 574.9759,383.8547 586.2312,370.8275 597.2819,357.1591 605.8136,345.6946 612.7903,335.085 615.9123,328.9968 618.0998,322.4559 620.7329,310.5201 622.4049,306.4502 623.6833,304.7459 625.1966,303.6521 631.4875,302.1235 633.9872,300.565 635.1198,299.1411 636.4017,296.7158 639.256,289.5578 644.8246,271.0139 650.3499,247.3197 654.653,223.0345 657.1092,202.1833 657.9956,183.9457 657.4077,168.8564 656.4193,161.2835 655.252,155.7528 653.7268,150.765 651.8226,146.3895 647.8126,140.1065 642.5858,134.2381 636.2141,128.7966 628.7038,123.7938 619.9696,119.2406 609.8342,115.1469 598.0676,111.5215 587.3392,108.9638 572.2026,106.2005 555.2417,103.9252 536.805,102.1434 517.4934,100.8602 498.0728,100.0804 475.7061,99.8158 458.5167,100.16 442.857,101.0225 431.2791,102.0887 420.326,103.4918 410.0501,105.2339 400.5528,107.3169 392.2246,109.6459 385.19,112.0857 378.2196,114.9392 369.6162,119.0447 361.1546,123.6954 352.8531,128.8338 344.7275,134.4015 335.229,141.5674 326.0281,149.1677 317.1495,157.1051 308.6206,165.2863 300.4724,173.6223 286.6444,189.0321 273.4647,205.5549 266.8449,214.8285 261.8766,222.4535 258.0318,229.0009 255.6506,234.1121 254.0744,238.4761 252.6148,243.8176 250.8488,254.7496 250.1907,264.9204 249.7588,288.5582 248.8896,298.7742 247.2716,306.6974 244.5628,313.779 241.3875,318.7297 237.0455,323.345 232.0962,327.3624 218.792,336.8398 215.3196,339.8419 212.2101,343.1898 209.5819,347.0092 207.5528,351.4346 206.4946,355.2392 205.6265,361.2637 205.2418,370.4902 205.7457,383.9618 207.2269,399.8265 209.6045,417.6136 212.7967,436.583 216.0191,452.6298 219.7005,468.3111 223.791,483.1583 227.324,494.2086 232.0235,506.8349 235.9778,515.9611 241.1215,526.2019 246.4418,535.2535 251.8893,543.2269 257.4163,550.1838 264.0882,557.1754 268.5241,560.956 272.9245,563.9652 277.2677,566.1366 281.9338,567.6956 287.4204,568.8032 293.0713,569.2494 298.8872,569.0945 305.6296,568.2771"/>
    <polygon points="277.0457,564.1321 280.8166,566.1124 285.291,567.7349 289.8403,568.7577 295.1327,569.2479 299.8486,569.1329 305.3426,568.4393 315.261,565.9773 327.9453,561.3102 356.4054,548.9524 375.7112,539.5611 405.711,523.7672 427.8487,511.29 451.3376,496.6582 472.595,482.2148 494.5494,466.0204 516.2771,448.3494 533.4479,432.891 543.1078,423.4874 552.1866,414.1135 563.3035,401.8394 575.5469,387.1723 585.9801,373.5895 596.2564,359.0634 606.4658,343.0623 612.8046,331.2893 615.4201,323.9199 618.5885,308.7731 620.4229,303.9773 621.6901,302.2547 623.216,301.1481 629.3471,299.644 631.9429,298.0757 634.2426,294.633 637.1999,287.5843 643.5622,267.8159 649.9819,243.3129 654.3073,222.539 657.0167,203.423 657.7077,194.8461 657.9951,186.4234 657.8321,178.2425 657.3462,171.9473 656.2553,164.5041 654.9676,158.987 653.2869,153.9516 651.1926,149.4879 646.8049,143.0038 641.151,136.8717 634.3901,131.1248 626.6346,125.7941 617.9029,120.9079 608.092,116.4905 596.9906,112.5627 587.0077,109.7841 572.9731,106.777 560.4516,104.751 543.2918,102.7004 524.8126,101.1918 505.6133,100.231 486.4137,99.8235 467.8883,99.9742 450.4934,100.6882 437.4813,101.6684 425.174,103.0145 413.61,104.7286 405.5374,106.2566 398.0387,107.9926 389.3077,110.5257 382.0561,113.1747 373.2515,117.1037 366.4284,120.6969 358.1815,125.6888 350.244,131.1642 342.6031,137.0434 335.2409,143.2466 326.7457,151.0082 317.2624,160.3424 308.2063,169.8085 292.5089,187.262 278.4879,204.0334 267.4987,218.5553 260.3958,229.565 258.5067,233.521 256.7101,238.4039 255.3681,243.4224 254.4156,248.5629 253.3621,260.0449 252.9434,282.7663 252.3584,292.5945 250.8949,301.9888 248.4157,309.9282 246.8889,313.1496 244.8987,316.3482 240.0489,321.9244 234.3512,326.7163 219.5396,337.4418 215.8034,340.7538 212.4698,344.454 209.6729,348.6745 207.7698,352.9026 206.6124,357.0017 205.6627,363.454 205.2418,373.2344 205.6246,384.7794 206.76,397.8744 209.0435,415.1834 212.2453,433.5242 215.5459,448.9655 219.3592,464.0169 223.6235,478.2685 227.3167,488.9094 232.2298,501.1592 237.4104,512.256 242.7921,522.3032 249.4254,533.1517 256.1513,542.8043 262.8744,551.223 269.5105,558.2032 273.8497,561.9122"/>
    <polygon points="262.887,549.2965 268.4573,556.9054 272.8882,561.5423 276.1816,564.0986 280.2368,566.3631 284.3984,567.9501 288.6661,568.9016 293.0397,569.2597 298.2756,568.9837 302.8776,568.2006 308.3793,566.7083 314.0234,564.6566 319.8096,562.1123 333.5666,554.8078 358.436,539.6826 373.1558,529.3704 387.4796,518.102 403.086,505.0768 462.956,453.1869 497.0525,421.8992 539.548,382.0114 558.8863,363.4501 576.8717,345.2267 583.7385,337.6979 588.4099,332.0195 590.9137,328.1448 592.889,324.137 597.5482,310.5822 598.7847,308.4557 600.4397,306.5741 602.319,305.2338 604.5098,304.3947 612.7535,303.2638 615.863,302.4751 618.5899,301.0397 620.7131,299.0465 625.2526,292.731 630.3766,283.6192 635.7953,272.2052 640.5471,260.7178 645.101,248.1768 649.259,234.913 652.8238,221.2566 655.2585,209.4892 656.9901,197.8841 657.8072,188.4873 657.9795,179.4681 657.4357,170.9471 656.1046,163.0446 653.9152,155.8814 650.7965,149.578 647.5849,145.2354 642.3443,140.234 635.7822,135.5123 628.0125,131.0727 616.8005,125.9233 604.2007,121.2227 590.5624,116.9753 576.2735,113.1858 558.8122,109.2491 541.5295,105.9857 524.737,103.4036 508.4252,101.5105 494.9983,100.4646 478.7484,99.8546 464.9065,99.8888 447.9951,100.5878 434.0216,101.7237 423.3032,102.9979 413.1798,104.5995 403.7348,106.5307 395.0509,108.7938 388.0945,111.0508 379.4233,114.4451 370.8036,118.4292 362.2621,122.9529 353.825,127.9657 343.8756,134.556 335.7612,140.4679 326.2755,147.9908 317.1074,155.8993 308.3025,164.1063 299.9063,172.525 291.9644,181.0685 279.8619,195.3493 268.4062,210.7003 263.0749,218.7312 258.4496,226.4096 255.9753,231.1064 253.788,236.4143 251.2397,245.5147 249.5987,256.6921 249.0073,267.0011 248.6091,289.7065 247.8583,298.9695 246.3558,306.7924 243.7419,313.9093 240.7012,318.7993 236.509,323.338 231.7122,327.2665 217.8961,337.1089 214.5753,340.0331 211.623,343.2804 208.8821,347.4402 207.086,351.688 205.9702,356.5874 205.3766,362.3497 205.2943,370.5957 206.1036,381.6766 207.4819,391.6529 209.9134,404.3309 213.1195,417.7324 217.0225,431.9148 222.3531,449.5252 229.3187,470.8984 236.0392,490.1469 242.166,506.4055 247.4707,519.314 252.9082,531.2576 258.4336,541.9064"/>
    <polygon points="368.7226,538.1929 377.7794,532.3431 397.7657,518.1887 422.5463,499.0393 448.8552,477.375 475.7547,454.1307 505.1954,427.5876 535.5504,399.0009 562.1191,372.7094 581.5462,352.2361 592.9519,339.1007 599.2161,330.5904 601.0676,327.1225 602.5702,323.4954 606.279,311.0411 608.5264,307.1182 610.2067,305.5318 612.2358,304.5095 620.0628,303.1971 622.8865,302.2422 625.1745,300.6212 627.4226,297.7642 630.8995,291.7428 635.2858,282.3167 639.3005,272.2137 643.3081,260.7255 648.6949,242.5668 653.2526,223.2204 656.2497,205.59 657.8378,188.4816 658.0,181.2291 657.7843,174.2803 656.4051,163.0362 654.9919,157.2405 653.6102,153.2415 651.3142,148.4227 649.2352,145.2272 644.8224,140.2262 637.7409,134.3687 630.9242,130.0006 621.0993,124.9414 609.9764,120.332 597.7169,116.1768 584.4822,112.4802 570.4338,109.2467 555.7332,106.4809 537.4588,103.7854 521.8915,102.0639 503.046,100.6347 484.2842,99.9071 468.9147,99.8423 451.031,100.421 436.7839,101.4556 425.9318,102.6481 415.6542,104.1672 406.0339,106.0153 397.1533,108.1947 389.8407,110.4445 381.1628,113.714 372.5307,117.5834 363.971,122.0023 355.51,126.9204 345.5245,133.4104 337.3739,139.2499 327.8378,146.6996 318.6115,154.5495 309.7409,162.7129 301.2715,171.1029 293.2493,179.6326 280.9964,193.9231 269.3519,209.3319 263.9071,217.415 259.1609,225.1598 256.3857,230.2383 254.1068,235.5244 251.4316,244.5988 249.6804,255.7622 249.0285,266.0744 248.6009,289.7148 247.8502,298.9768 246.3478,306.7985 243.7341,313.9141 240.6938,318.803 236.5022,323.3408 231.7061,327.2683 217.8929,337.1088 214.5729,340.0369 211.6214,343.2984 208.8811,347.4993 207.0855,351.8247 205.97,356.8685 205.3766,362.8896 205.2943,371.694 206.1033,383.8917 207.8294,397.5707 210.3947,412.414 213.7215,428.1046 217.7322,444.3253 222.3489,460.7591 226.6031,474.3881 232.1292,490.3892 237.0323,503.2136 243.2065,517.7164 248.5408,528.8481 253.9992,538.9169 259.5367,547.7392 265.1083,555.1317 270.669,560.9107 273.9815,563.5274 278.1883,565.925 282.2973,567.5502 287.2255,568.7466 292.298,569.2433 297.5143,569.097 302.8742,568.3642 308.377,567.1014 314.8405,565.0817 321.4896,562.5281 337.125,555.2672 360.3999,543.115"/>
    <polygon points="225.9446,328.5507 214.9454,335.8867 212.1778,338.2105 210.0188,340.5111 208.0122,343.4571 206.6801,346.4717 205.7573,350.4337 205.3372,354.6553 205.327,362.1561 206.1897,372.5997 207.9138,385.0435 210.8436,402.2648 220.8438,453.8466 225.1958,473.4995 230.0604,492.8853 233.5876,505.1672 237.338,516.647 241.3043,527.1434 244.414,534.2956 247.632,540.7936 252.0769,548.4041 256.6763,554.7773 261.4015,559.8735 265.0083,562.8245 268.9323,565.1517 273.5714,567.0831 279.2597,568.5418 284.3692,569.158 290.5963,569.1935 297.0987,568.5534 303.8599,567.3008 311.8761,565.1992 320.1622,562.4693 328.6693,559.1978 338.4329,554.9738 350.5128,549.1945 364.7554,541.7738 371.3324,537.953 378.1655,533.425 387.4814,526.3236 396.8,518.0603 403.6604,511.1478 412.5194,501.0669 425.1567,484.4148 456.1096,439.3974 466.5208,425.0321 472.947,416.8737 479.5904,409.125 491.2693,397.1835 503.7434,386.441 519.5104,374.9534 532.8588,366.3418 570.5757,343.4077 584.6704,333.7727 587.8886,330.9368 590.428,327.9724 592.4625,324.6895 596.0221,317.2731 597.6021,315.2061 599.398,313.6717 601.5044,312.5121 603.9028,311.79 613.2691,310.7812 616.7708,310.023 619.7872,308.5876 622.525,306.1404 627.3551,299.8616 631.9476,291.9596 636.6661,281.7988 641.3171,269.4358 645.7196,255.08 649.1646,241.4992 652.1944,227.1417 654.7021,212.4753 656.5781,198.003 657.5774,186.4403 658.0,173.5234 657.6261,163.7771 656.5199,155.092 654.6132,147.5409 651.8338,141.1551 648.1018,135.9406 644.4499,132.4992 638.3818,128.2723 630.9629,124.4308 622.2065,120.9455 612.1407,117.789 600.8361,114.9368 588.432,112.3677 575.1499,110.0637 554.2564,107.0745 533.3012,104.6159 510.3588,102.3927 487.5456,100.6886 470.5943,99.9313 457.581,99.8328 443.232,100.3682 431.3875,101.3913 421.9686,102.6477 410.8661,104.6509 402.0613,106.6791 392.4795,109.3997 382.154,112.8319 371.181,116.973 359.7148,121.8367 349.9225,126.4587 340.0476,131.6131 330.2181,137.3087 320.5587,143.5448 313.0316,148.9135 305.7406,154.6034 298.7322,160.5915 292.0458,166.8467 284.1885,174.982 278.3321,181.6869 272.8751,188.51 267.827,195.3945 262.0983,203.9963 257.0142,212.4843 252.5666,220.7441 248.0521,230.2046 245.5474,236.6332 242.8425,246.454 240.8724,258.4746 239.8472,272.2385 239.459,295.6869 239.06,303.5825 237.9479,311.2062 236.0326,317.1864 233.7287,321.2865 230.1199,325.2728"/>
    <polygon points="252.1113,308.1395 250.5196,311.4495 248.3589,314.9109 245.8702,318.0739 243.0978,320.9849 236.8931,326.2503 221.178,337.7727 217.5258,340.9806 214.1928,344.5069 211.2839,348.45 208.9016,352.9126 207.1462,358.0016 206.1646,363.0132 205.319,373.0981 205.3943,385.2131 206.3336,399.1119 208.5203,417.6045 211.1556,433.8959 214.4627,450.2965 218.373,466.1422 222.8119,480.8691 226.6899,491.5894 230.8114,501.2776 235.1318,509.957 240.7429,519.5501 247.6703,529.6169 254.6746,538.5727 262.7725,547.9626 270.63,556.1 276.022,560.8711 280.1757,563.8905 284.1729,566.0868 288.3597,567.6694 293.1511,568.7954 298.5544,569.2616 303.9861,568.964 309.4723,567.9901 316.3089,566.0121 324.0399,563.0563 376.3284,540.4294 420.157,521.9316 442.2348,511.7558 461.4846,501.8133 481.5446,490.301 497.8602,479.8918 513.9898,468.454 529.5037,456.1171 540.5001,446.4004 554.0668,433.0457 566.2077,419.5221 576.8479,406.152 588.0918,390.109 597.2564,375.2481 603.2819,364.4301 609.407,352.4022 614.1536,342.1223 617.8012,333.1989 620.5033,323.9678 623.4035,306.0562 625.0283,300.6387 626.0796,298.8759 627.3655,297.7394 632.3158,296.2383 634.3265,294.8698 635.9592,292.3989 637.8611,287.5276 643.653,267.8572 650.9982,238.765 654.8779,220.3376 657.0934,205.1189 657.9955,189.8133 657.3971,176.1761 656.3916,168.9105 655.2055,163.4119 653.66,158.3115 651.7399,153.7271 647.7467,146.9678 642.6792,140.4749 636.7547,134.31 630.1335,128.5308 622.8335,123.1889 616.3879,119.2605 609.2042,115.6596 601.0345,112.4022 591.6175,109.5013 583.6018,107.5658 574.7031,105.8402 561.4495,103.8706 534.8721,101.3492 518.3242,100.444 501.3715,99.9324 484.5202,99.8174 468.2096,100.1017 452.7308,100.7884 438.1711,101.88 424.4201,103.3791 411.5762,105.2872 399.9259,107.6048 392.0646,109.6111 383.3982,112.4157 375.9349,115.4755 368.8225,119.005 360.4333,124.0059 354.1138,128.4161 346.6742,134.3525 339.6966,140.658 331.8452,148.5576 319.7295,162.07 277.0263,212.1531 268.7825,222.3864 264.3888,228.7187 262.5442,232.2419 260.7897,236.6279 259.483,241.1884 258.5617,245.9242 257.6032,255.9088 257.1401,279.3942 256.4701,289.621 254.8413,299.5949 253.6513,303.9481"/>
  </g>
</svg>
